<?xml version="1.0" standalone="no"?>
<!DOCTYPE svg PUBLIC "-//W3C//DTD SVG 1.1//EN" "http://www.w3.org/Graphics/SVG/1.1/DTD/svg11.dtd" >
<svg xmlns="http://www.w3.org/2000/svg">
<metadata></metadata>
<defs>
<font id="hellvetica_monospaced_probold" horiz-adv-x="1228" >
<font-face units-per-em="2048" ascent="1470" descent="-578" />
<missing-glyph horiz-adv-x="500" />
<glyph horiz-adv-x="2048" />
<glyph horiz-adv-x="2048" />
<glyph horiz-adv-x="682" />
<glyph unicode="&#xd;" />
<glyph unicode=" " />
<glyph unicode="!" d="M455 1096v374h317v-374l-84 -688h-151zM465 0v289h299v-289h-299z" />
<glyph unicode="&#x22;" d="M324 915v555h200v-555h-200zM705 915v555h200v-555h-200z" />
<glyph unicode="#" d="M82 408l24 184h199l35 246h-199l25 184h199l57 408h192l-57 -408h199l57 408h193l-58 -408h199l-25 -184h-198l-35 -246h198l-24 -184h-199l-57 -408h-193l58 408h-199l-57 -408h-193l58 408h-199zM498 592h198l35 246h-199z" />
<glyph unicode="$" d="M109 440h268q5 -62 13 -99t28 -72t56.5 -55.5t94.5 -31.5v426q-430 94 -430 420q0 191 118 306t312 120v133h93v-133q208 -17 313.5 -122t120.5 -306h-265q-7 54 -15 86.5t-26 62.5t-49 44.5t-79 17.5v-383q190 -66 260 -104q132 -73 173 -190q23 -66 23 -154 q0 -190 -131 -315.5t-325 -125.5v-201h-93v201q-241 17 -350 128.5t-110 346.5zM397 1077q0 -77 41 -125t131 -71v356q-71 -2 -121.5 -47t-50.5 -113zM662 182q81 3 131.5 56t50.5 145q0 144 -182 199v-400z" />
<glyph unicode="%" d="M82 1145q0 152 70.5 225.5t187.5 73.5q114 0 186 -74t72 -225q0 -149 -72 -224t-186 -75q-117 0 -187.5 74.5t-70.5 224.5zM96 -39l875 1493h162l-877 -1493h-160zM242 1145q0 -76 26.5 -113t71.5 -37q41 0 69.5 38t28.5 112q0 73 -29 111t-69 38q-45 0 -71.5 -37 t-26.5 -112zM631 274q0 152 70.5 225.5t187.5 73.5q114 0 186 -74t72 -225q0 -149 -72 -224t-186 -75q-117 0 -187.5 74.5t-70.5 224.5zM791 274q0 -76 26.5 -112.5t71.5 -36.5q41 0 69.5 37.5t28.5 111.5q0 73 -29 111.5t-69 38.5q-45 0 -71.5 -37.5t-26.5 -112.5z" />
<glyph unicode="&#x26;" d="M14 379q0 264 283 428l31 18q-133 148 -133 308q0 100 52 178t137 118.5t185 40.5q161 0 269 -92t108 -248q0 -205 -244 -350l209 -258q67 113 76 242h254q-21 -263 -168 -442l266 -322h-346l-100 125q-153 -164 -420 -164q-123 0 -227.5 52t-168 148.5t-63.5 217.5z M301 397q0 -84 63.5 -139t153.5 -55q113 0 227 102l-270 338q-13 -10 -42 -31.5t-39.5 -30.5t-30.5 -27t-27.5 -31t-17.5 -33t-13.5 -42.5t-3.5 -50.5zM457 1135q0 -76 106 -185q135 82 135 183q0 59 -34 89.5t-89 30.5q-54 0 -86 -32t-32 -86z" />
<glyph unicode="'" d="M514 915v555h201v-555h-201z" />
<glyph unicode="(" d="M330 535q0 510 358 968h211q-274 -438 -274 -968q0 -529 274 -961h-211q-358 449 -358 961z" />
<glyph unicode=")" d="M328 -426q276 431 276 961q0 531 -276 968h211q360 -461 360 -968q0 -510 -360 -961h-211z" />
<glyph unicode="*" d="M270 1147l47 149l209 -69v243h174v-243l207 69l49 -149l-215 -66l144 -198l-129 -90l-142 186l-139 -186l-129 90l137 198z" />
<glyph unicode="+" d="M98 403v230h402v403h229v-403h401v-230h-401v-403h-229v403h-402z" />
<glyph unicode="," d="M461 0v299h307v-258q0 -323 -305 -385h-2v108q166 44 172 236h-172z" />
<glyph unicode="-" d="M328 440v267h571v-267h-571z" />
<glyph unicode="." d="M461 0v299h307v-299h-307z" />
<glyph unicode="/" d="M260 -49l467 1558h240l-465 -1558h-242z" />
<glyph unicode="0" d="M111 709q0 382 123.5 563.5t379.5 181.5t380 -182t124 -563q0 -132 -12 -235.5t-45.5 -203t-88.5 -165t-145.5 -105t-212.5 -39.5q-256 0 -379.5 181.5t-123.5 566.5zM406 709q0 -291 43 -402q43 -117 165 -117q120 0 164 117q45 124 45 402q0 288 -45 403 q-43 113 -164 113q-119 0 -165 -113q-43 -110 -43 -403z" />
<glyph unicode="1" d="M195 1001v201h41q164 0 255.5 67.5t100.5 184.5h235v-1194h291v-260h-889v260h312v741h-346z" />
<glyph unicode="2" d="M117 0q3 195 84 322q85 136 282 276q28 20 76 54.5t69 49.5t56 43t50 44.5t36 43.5t29.5 50.5t15 54.5t6.5 66q0 90 -58 149t-149 59q-114 0 -158 -68t-44 -204h-279q-6 239 120 376.5t355 137.5q142 0 255 -54t179 -159.5t66 -245.5q0 -84 -17.5 -148t-59 -120 t-92 -100.5t-134.5 -104.5q-176 -125 -230 -166q-70 -55 -94 -102h629v-254h-993z" />
<glyph unicode="3" d="M115 446h278q0 -124 55 -190t158 -66q100 0 157.5 67.5t57.5 172.5q0 109 -72 158t-221 49h-32v205h45q126 0 184.5 41.5t58.5 154.5q0 83 -49 135t-133 52q-196 0 -196 -238h-267q-1 222 127.5 344.5t354.5 122.5q196 0 323 -107t127 -298q0 -186 -174 -277v-4 q19 -4 42.5 -15.5t56 -37.5t58.5 -61.5t44 -94.5t18 -129q0 -207 -142 -338t-353 -131q-240 0 -375 123t-131 362z" />
<glyph unicode="4" d="M102 322v247l535 885h326v-909h161v-223h-161v-322h-287v322h-574zM313 545h363q0 264 6 624h-4z" />
<glyph unicode="5" d="M113 389h286q21 -199 203 -199q103 0 160 79t57 190q0 112 -54.5 188t-158.5 76q-140 0 -192 -105l-256 13l100 799h799v-242h-592l-51 -316q103 80 260 80q193 0 316.5 -134t123.5 -335q0 -238 -142 -380t-386 -142q-197 0 -333.5 118t-139.5 310z" />
<glyph unicode="6" d="M113 692q0 135 14 243t51 207.5t96.5 166t155.5 106t223 39.5q179 0 295 -94t137 -275h-284q-21 140 -168 140q-225 0 -240 -402l4 -4q86 121 279 121q190 0 314 -129t124 -319q0 -146 -55.5 -265.5t-165 -192.5t-254.5 -73q-269 0 -397.5 179t-128.5 552zM399 461 q0 -116 60 -193.5t168 -77.5q91 0 145.5 74.5t54.5 202.5q0 104 -55.5 174t-153.5 70q-105 0 -162 -70t-57 -180z" />
<glyph unicode="7" d="M100 1176v254h1026v-222q-480 -522 -530 -1208h-295q58 667 518 1176h-719z" />
<glyph unicode="8" d="M111 418q0 252 221 354q-176 83 -176 285q0 122 62 213.5t163.5 137.5t226.5 46q122 0 225 -41.5t169.5 -129.5t66.5 -208q0 -201 -168 -293q217 -94 217 -350q0 -209 -143.5 -340t-360.5 -131q-225 0 -364 119.5t-139 337.5zM406 420q0 -106 57.5 -168t154.5 -62 q93 0 149 67.5t56 162.5q0 97 -56 162t-151 65q-98 0 -154 -60t-56 -167zM430 1049q0 -78 52.5 -131.5t133.5 -53.5q82 0 130.5 51.5t48.5 131.5q0 79 -49 128.5t-130 49.5q-83 0 -134.5 -47.5t-51.5 -128.5z" />
<glyph unicode="9" d="M111 932q0 242 130 382t365 140q87 0 159 -20t124.5 -55t92.5 -88t65.5 -115t41.5 -139.5t22.5 -157t6.5 -172.5q0 -121 -16.5 -226.5t-55.5 -202.5t-98.5 -166t-150.5 -110t-207 -41q-120 0 -218.5 44t-161 130t-71.5 201h285v-2q12 -73 56 -108.5t112 -35.5 q111 0 174.5 104.5t64.5 301.5l-4 4q-85 -123 -276 -123q-195 0 -317.5 128.5t-122.5 326.5zM397 973q0 -266 215 -266q98 0 154.5 69.5t56.5 173.5q0 129 -56.5 199t-162.5 70q-94 0 -150.5 -62.5t-56.5 -183.5z" />
<glyph unicode=":" d="M461 0v299h307v-299h-307zM461 750v299h307v-299h-307z" />
<glyph unicode=";" d="M461 0v299h307v-258q0 -323 -305 -385h-2v108q166 44 172 236h-172zM461 750v299h307v-299h-307z" />
<glyph unicode="&#x3c;" d="M98 426v184l1032 443v-222l-735 -313l735 -313v-221z" />
<glyph unicode="=" d="M98 178v230h1032v-230h-1032zM98 629v229h1032v-229h-1032z" />
<glyph unicode="&#x3e;" d="M98 -16v221l736 313l-736 313v222l1032 -443v-184z" />
<glyph unicode="?" d="M106 1010q-6 146 65 257t188 166.5t257 55.5q145 0 257 -46t180.5 -146t68.5 -244q0 -85 -28.5 -149.5t-77.5 -112t-142 -115.5q-81 -57 -101 -101.5t-23 -148.5h-269q-8 153 33 238t174 178q125 88 125 202q0 96 -53.5 149.5t-143.5 53.5q-203 0 -221 -235v-2h-289z M469 0v289h299v-289h-299z" />
<glyph unicode="@" d="M59 551q0 216 77.5 394t212 279t296.5 101q103 0 199 -45.5t170 -126t118 -201t44 -260.5q0 -274 -94.5 -435t-260.5 -161q-44 0 -74 31.5t-36 89.5l-2 2q-58 -121 -150 -121q-108 0 -169.5 109t-61.5 270q0 125 33 232.5t103 178t163 70.5q66 0 110 -32.5t74 -100.5 l18 103h134l-86 -525q-13 -53 -13 -88q0 -41 29 -41q36 0 64.5 36.5t44 94t23 118t7.5 118.5q0 242 -107.5 381t-281.5 139q-125 0 -220.5 -80t-145.5 -219t-50 -315q0 -287 120 -457t319 -170q87 0 169 42.5t134 121.5h153q-183 -328 -467 -328q-167 0 -303.5 101 t-214.5 283.5t-78 410.5zM510 489q0 -96 21.5 -144t74.5 -48q61 0 99 85t38 191v13q0 83 -26 131.5t-78 48.5q-34 0 -59.5 -24t-40.5 -65t-22 -88.5t-7 -99.5z" />
<glyph unicode="A" d="M-2 0l442 1470h355l436 -1470h-334l-76 303h-422l-77 -303h-324zM465 557h293l-142 582h-4z" />
<glyph unicode="B" d="M150 0v1470h550q111 0 198 -40t140.5 -126.5t53.5 -209.5q0 -223 -181 -301q228 -85 228 -357q0 -136 -85.5 -253t-219.5 -156q-80 -27 -226 -27h-458zM444 254h213q174 0 174 215q0 82 -43 130t-116 48h-228v-393zM444 895h197q74 0 115 43t41 121q0 80 -38.5 119 t-125.5 39h-189v-322z" />
<glyph unicode="C" d="M82 733q0 163 35 303t102.5 246t174 166.5t241.5 60.5q134 0 244 -60.5t182 -180t86 -279.5h-307q-38 254 -203 254q-65 0 -113.5 -43.5t-75.5 -118.5t-40 -163t-13 -189q0 -98 13 -184.5t40.5 -159.5t76 -115.5t112.5 -42.5q159 0 203 277h307q-29 -245 -170 -394 t-346 -149q-135 0 -241 58.5t-172.5 163t-101 244t-34.5 306.5z" />
<glyph unicode="D" d="M145 0v1470h465q136 0 240.5 -54t168.5 -150t96 -221t32 -275q0 -123 -20 -234.5t-63 -210t-106 -170.5t-155.5 -113.5t-204.5 -41.5h-453zM446 254h115q61 0 108.5 29t78 76t50.5 112.5t28 133.5t8 143q0 469 -267 469h-121v-963z" />
<glyph unicode="E" d="M137 0v1470h959v-260h-658v-309h594v-260h-594v-381h692v-260h-993z" />
<glyph unicode="F" d="M162 0v1470h964v-260h-657v-331h565v-261h-565v-618h-307z" />
<glyph unicode="G" d="M90 731q0 225 63.5 399.5t190.5 276.5t301 102q190 0 323.5 -130t157.5 -365h-305q-9 76 -24.5 125.5t-38 74t-44.5 33t-52 8.5q-124 0 -191.5 -140t-67.5 -388q0 -247 66.5 -376.5t198.5 -129.5q35 0 61 10.5t53.5 42t47 99.5t30.5 172h-178v248h451v-793h-205l-31 184 q-44 -121 -106.5 -172t-194.5 -51q-159 0 -275.5 106t-173.5 278t-57 386z" />
<glyph unicode="H" d="M143 0v1470h308v-557h327v557h307v-1470h-307v659h-327v-659h-308z" />
<glyph unicode="I" d="M180 0v260h281v950h-281v260h869v-260h-281v-950h281v-260h-869z" />
<glyph unicode="J" d="M90 455v100h287v-31v-60.5t2 -53.5t5 -50.5t9 -42t15 -38t22.5 -28t31.5 -23t41.5 -12.5t53.5 -5q107 0 150 49t43 156v794h-514v260h819v-1044q0 -230 -122.5 -346.5t-352.5 -116.5q-261 0 -375.5 115.5t-114.5 376.5z" />
<glyph unicode="K" d="M150 0v1470h307v-487l358 487h354l-460 -620l495 -850h-375l-325 600l-47 -53v-547h-307z" />
<glyph unicode="L" d="M176 0v1470h307v-1204h670v-266h-977z" />
<glyph unicode="M" d="M66 0v1470h407l143 -1077h7l137 1077h405v-1470h-268v829l4 236h-8l-131 -1065h-301l-125 1065h-4v-1065h-266z" />
<glyph unicode="N" d="M137 0v1470h406l258 -1024h4v1024h285v-1470h-390l-272 1049h-4v-1049h-287z" />
<glyph unicode="O" d="M74 735q0 232 60.5 404.5t183 271t294.5 98.5q169 0 293 -97t188 -271t64 -406q0 -229 -63 -403t-186 -272.5t-292 -98.5q-255 0 -398.5 209t-143.5 565zM379 735q0 -147 23.5 -259t78.5 -183.5t137 -71.5q77 0 131 73t78.5 186.5t24.5 254.5q0 143 -24.5 256 t-79.5 185.5t-134 72.5q-81 0 -135 -72.5t-77 -184.5t-23 -257z" />
<glyph unicode="P" d="M152 0v1470h589q183 0 289.5 -128.5t106.5 -342.5q0 -206 -113 -337.5t-295 -131.5h-270v-530h-307zM459 784h203q85 0 126 54.5t41 169.5q0 112 -46.5 160.5t-143.5 48.5h-180v-433z" />
<glyph unicode="Q" d="M94 735q0 231 58 404t176 271.5t284 98.5q163 0 282.5 -97t181 -271t61.5 -406q0 -328 -123 -536l125 -140l-160 -165l-123 135q-108 -68 -240 -68q-245 0 -383.5 209.5t-138.5 564.5zM399 735q0 -108 13 -199t38.5 -162.5t68.5 -112t99 -40.5q32 0 56 12l-146 166 l158 166l113 -127q32 117 32 297q0 106 -13 197t-38.5 163t-68 113t-97.5 41t-97.5 -41t-67.5 -113t-37.5 -162.5t-12.5 -197.5z" />
<glyph unicode="R" d="M143 0v1470h580q176 0 288.5 -111.5t112.5 -303.5q0 -256 -227 -350q64 -33 100.5 -64.5t56 -80t24.5 -99.5t5 -144q0 -188 15 -231q14 -32 51 -47v-39h-340q-33 95 -33 287q0 78 -1.5 112t-10 77.5t-27 59t-52.5 27.5t-87 12h-154v-575h-301zM444 823h197q91 0 133.5 47 t42.5 154q0 92 -39.5 142.5t-113.5 50.5h-220v-394z" />
<glyph unicode="S" d="M92 453h295q0 -110 59 -174t168 -64q110 0 168 43t58 127q0 92 -67 142.5t-253 111.5q-65 21 -108.5 37.5t-90 38.5t-75.5 45t-57 54t-43 68.5t-24 86t-9 108.5q0 110 37 194t103.5 135.5t153.5 77t191 25.5q211 0 345 -124.5t144 -350.5h-294q-8 108 -63 164.5 t-157 56.5q-72 0 -123 -37.5t-51 -117.5q0 -37 9.5 -62.5t40 -57t97.5 -62t173 -62.5q95 -29 166 -64.5t129.5 -86.5t89.5 -122.5t31 -160.5q0 -94 -26.5 -171.5t-72.5 -130.5t-109.5 -89.5t-135.5 -53t-152 -16.5q-533 0 -547 492z" />
<glyph unicode="T" d="M78 1210v260h1073v-260h-385v-1210h-307v1210h-381z" />
<glyph unicode="U" d="M123 498v972h313v-954q0 -145 43.5 -220t128.5 -75q87 0 135 71.5t48 209.5v968h313v-956q0 -271 -127 -412t-375 -141q-223 0 -351 136.5t-128 400.5z" />
<glyph unicode="V" d="M33 1470h329l254 -1073h5l258 1073h319l-438 -1470h-293z" />
<glyph unicode="W" d="M8 1470h285l47 -671l25 -414h4l26 414l68 671h311l68 -667l30 -418h5l24 418l49 667h273l-168 -1470h-336l-80 786l-25 371h-4l-26 -371l-80 -786h-326z" />
<glyph unicode="X" d="M23 0l413 752l-387 718h367l200 -475l205 475h357l-387 -706l415 -764h-372l-218 502l-235 -502h-358z" />
<glyph unicode="Y" d="M23 1470h362l244 -639l229 639h348l-430 -919v-551h-307v555z" />
<glyph unicode="Z" d="M70 0v260l700 950h-678v260h1061v-241l-707 -969h711v-260h-1087z" />
<glyph unicode="[" d="M362 -401v1880h504v-197h-254v-1487h254v-196h-504z" />
<glyph unicode="\" d="M260 1509h242l465 -1548h-240z" />
<glyph unicode="]" d="M362 -205h254v1487h-254v197h504v-1880h-504v196z" />
<glyph unicode="^" d="M143 662l369 768h205l368 -768h-225l-246 538l-247 -538h-224z" />
<glyph unicode="_" d="M0 -141h1229v-129h-1229v129z" />
<glyph unicode="`" d="M238 1536h315l192 -299h-206z" />
<glyph unicode="a" d="M92 289q0 143 83.5 234t244.5 112l289 39q125 15 125 88q0 63 -53 96t-156 33q-108 0 -159.5 -36t-62.5 -118h-276q15 111 52.5 185t103.5 117t153 61t211 18q93 0 171 -16.5t144.5 -51.5t106 -98t43.5 -149v-590q0 -80 14 -120.5t50 -49.5v-43h-308q-28 74 -28 129 q-152 -158 -383 -158q-162 0 -263.5 84.5t-101.5 233.5zM379 307q0 -61 46 -96t116 -35q69 0 135 24.5t112 75t46 115.5v137q-66 -38 -228 -59q-60 -8 -97 -16.5t-69 -26t-46.5 -46.5t-14.5 -73z" />
<glyph unicode="b" d="M104 0v1470h287v-522h4q108 170 316 170q111 0 199 -46t142 -124.5t82.5 -178t28.5 -212.5q0 -93 -16 -177t-51.5 -159.5t-88 -130.5t-130 -87t-172.5 -32q-215 0 -314 166h-4v-137h-283zM379 520q0 -148 68 -230.5t186 -82.5q80 0 135 50.5t77.5 122.5t22.5 157 q0 159 -63.5 246t-179.5 87q-122 0 -184 -89.5t-62 -260.5z" />
<glyph unicode="c" d="M113 514q0 297 139.5 450.5t402.5 153.5q133 0 242 -47t179.5 -143.5t78.5 -227.5h-291q-39 177 -209 177q-68 0 -117.5 -26.5t-77 -73t-40 -100t-12.5 -116.5q0 -66 5 -114.5t20 -96t41 -77.5t70 -48t105 -18q84 0 144.5 56t68.5 134h291q-28 -200 -166.5 -313 t-351.5 -113q-255 0 -388.5 145.5t-133.5 397.5z" />
<glyph unicode="d" d="M86 557q0 113 28.5 212.5t83 178t142 124.5t197.5 46q209 0 317 -170h4v522h285v-1470h-279v137h-4q-102 -166 -317 -166q-94 0 -171.5 32t-129.5 87t-88 130t-52 159.5t-16 177.5zM381 537q0 -62 13 -118t39.5 -105t73 -78t107.5 -29q126 0 190 88.5t64 224.5 q0 350 -245 350q-114 0 -178 -88t-64 -245z" />
<glyph unicode="e" d="M92 530q0 268 140.5 428t412.5 160q134 0 234 -43.5t160 -125t89 -189t29 -242.5v-51h-778q10 -131 84 -198.5t201 -67.5q142 0 186 118h295q-50 -167 -177 -257.5t-302 -90.5q-277 0 -425.5 146.5t-148.5 412.5zM387 653h475q-11 103 -66.5 166.5t-154.5 63.5 q-227 0 -254 -230z" />
<glyph unicode="f" d="M117 885v205h338v26q0 192 98 283.5t311 91.5q112 0 303 -6v-234l-249 2q-49 0 -80 -5t-51.5 -14.5t-29.5 -30.5t-12.5 -45.5t-3.5 -67.5h433v-205h-433v-885h-286v885h-338z" />
<glyph unicode="g" d="M88 557q0 90 17.5 172.5t54 153.5t89 123t127.5 82t165 30q225 0 319 -190h4v162h275v-1063q0 -244 -135 -357.5t-416 -113.5q-88 0 -167.5 18t-148 55.5t-112 102.5t-49.5 151h313q9 -110 201 -110q227 0 227 235v150h-4q-83 -164 -291 -164q-156 0 -263.5 76.5 t-156.5 201t-49 285.5zM383 539q0 -82 21 -147.5t74 -110.5t132 -45q118 0 181 81t63 234q0 139 -70 231q-67 88 -176 88q-103 0 -164 -85t-61 -246z" />
<glyph unicode="h" d="M141 0v1470h287v-520h4q98 168 320 168q166 0 270 -99t104 -265v-754h-286v678q0 199 -187 199q-105 0 -165 -71t-60 -181v-625h-287z" />
<glyph unicode="i" d="M158 0v205h334v680h-314v205h600v-885h314v-205h-934zM492 1219v266h286v-266h-286z" />
<glyph unicode="j" d="M199 -209h180q201 0 201 162v932h-314v205h600v-1143q0 -213 -100.5 -299t-351.5 -86h-215v229zM580 1219v266h286v-266h-286z" />
<glyph unicode="k" d="M150 0v1470h286v-794l361 414h354l-385 -422l395 -668h-344l-260 467l-121 -123v-344h-286z" />
<glyph unicode="l" d="M158 0v205h334v1061h-314v204h600v-1265h314v-205h-934z" />
<glyph unicode="m" d="M39 0v1090h256v-160h4q59 188 233 188q112 0 173 -174q67 174 210 174q129 0 192.5 -94t63.5 -270v-754h-268v668q0 38 -0.5 60.5t-2.5 49.5t-6.5 42.5t-12 30t-19.5 20.5t-28 6q-54 0 -74.5 -50.5t-20.5 -162.5v-664h-268v680q0 113 -12 155t-58 42q-52 0 -74 -51.5 t-22 -161.5v-664h-266z" />
<glyph unicode="n" d="M141 0v1090h277v-160h4q102 188 323 188q168 0 274.5 -98t106.5 -266v-754h-286v678q0 199 -187 199q-103 0 -164 -67.5t-61 -184.5v-625h-287z" />
<glyph unicode="o" d="M80 545q0 259 144.5 416t387.5 157q239 0 387 -159t148 -414q0 -258 -145.5 -416t-389.5 -158q-243 0 -387.5 158t-144.5 416zM375 545q0 -164 60.5 -248t176.5 -84q117 0 178.5 86t61.5 246q0 159 -61 245.5t-179 86.5q-113 0 -175 -84t-62 -248z" />
<glyph unicode="p" d="M106 -424v1514h275v-158h6q104 186 324 186q111 0 199 -45.5t142 -124t82.5 -178.5t28.5 -213q0 -93 -16 -177t-51.5 -159.5t-88 -130.5t-130 -87t-172.5 -32q-217 0 -308 168h-4v-563h-287zM381 520q0 -137 63 -225t189 -88q61 0 108 29.5t73.5 78.5t40 105t13.5 117 q0 162 -63.5 247.5t-179.5 85.5q-244 0 -244 -350z" />
<glyph unicode="q" d="M84 522q0 121 28.5 226t84.5 189t149.5 132.5t214.5 48.5q204 0 303 -190h4v162h275v-1514h-285v559h-4q-89 -164 -311 -164q-110 0 -199.5 46.5t-145 124t-85 175.5t-29.5 205zM379 524q0 -154 62 -232.5t182 -78.5q64 0 111.5 27t74.5 74t40 103.5t13 121.5 q0 66 -14 124t-42.5 105t-77 74.5t-112.5 27.5q-114 0 -175.5 -88.5t-61.5 -257.5z" />
<glyph unicode="r" d="M236 0v1090h276v-189h4q60 110 146.5 163.5t214.5 53.5q44 0 176 -4v-291q-82 4 -205 4q-165 0 -245.5 -64.5t-80.5 -195.5v-567h-286z" />
<glyph unicode="s" d="M98 344h293q0 -168 242 -168q100 0 156.5 28.5t56.5 76.5q0 22 -7 38.5t-24 29t-34 21t-50.5 16t-58 12.5t-72 13.5t-78.5 14.5q-76 15 -130.5 31t-106.5 42t-83 58.5t-50 81t-19 111.5q0 124 65.5 208.5t170.5 122t243 37.5q230 0 353.5 -91.5t138.5 -270.5h-281 q-12 74 -62.5 111.5t-150.5 37.5q-96 0 -145 -28t-49 -74q0 -21 7 -36.5t24.5 -28t35 -20.5t51 -16.5t59.5 -14t72.5 -14.5t79.5 -16q87 -20 140 -35t107.5 -40.5t83.5 -56.5t47 -78.5t18 -110.5q0 -182 -134.5 -277.5t-394.5 -95.5q-478 0 -514 381z" />
<glyph unicode="t" d="M102 885v205h332v294h289v-294h362v-205h-362v-549q0 -78 45 -104.5t152 -26.5q64 0 186 4v-213q-143 -10 -258 -10q-87 0 -147 6.5t-114 25t-85.5 51.5t-49.5 86.5t-18 129.5v600h-332z" />
<glyph unicode="u" d="M123 373v717h287v-676q0 -201 186 -201q105 0 163 69t58 179v629h287v-1090h-275v154h-4q-109 -183 -331 -183q-181 0 -276 107t-95 295z" />
<glyph unicode="v" d="M72 1090h319l225 -803h5l231 803h305l-393 -1090h-301z" />
<glyph unicode="w" d="M23 1090h282l64 -824h4l98 824h289l110 -824h4l64 824h270l-168 -1090h-315l-109 836h-4l-108 -836h-316z" />
<glyph unicode="x" d="M76 0l368 555l-356 535h348l187 -318l180 318h338l-361 -535l373 -555h-354l-191 328l-186 -328h-346z" />
<glyph unicode="y" d="M31 1090h319l275 -803h4l264 803h303l-416 -1092q-79 -205 -123 -289q-47 -91 -109.5 -119t-189.5 -28q-70 0 -129 6v227q20 -4 78 -4q80 0 111 33t57 129z" />
<glyph unicode="z" d="M143 0v223l559 637h-520v230h883v-236l-551 -618h571v-236h-942z" />
<glyph unicode="{" d="M289 444v189q78 0 133 41q59 39 59 114v410q0 122 84 201.5t203 79.5h170v-181h-92q-115 0 -115 -124v-412q-24 -194 -233 -221v-4q209 -30 233 -222v-411q0 -125 115 -125h92v-180h-170q-119 0 -203 79.5t-84 200.5v410q0 78 -59 117q-59 38 -133 38z" />
<glyph unicode="|" d="M500 -39v1548h229v-1548h-229z" />
<glyph unicode="}" d="M289 -221h92q115 0 115 125v411q24 192 233 222v4q-209 27 -233 221v412q0 64 -28 94t-87 30h-92v181h170q120 0 203 -79t83 -202v-410q0 -72 60 -114q58 -41 133 -41v-189q-71 0 -133 -38q-60 -42 -60 -117v-410q0 -121 -83.5 -200.5t-202.5 -79.5h-170v180z" />
<glyph unicode="~" d="M68 553q100 149 286 149q108 0 258 -65q18 -7 64 -27.5t63.5 -26.5t52.5 -13t72 -7q123 0 193 119l102 -199q-98 -149 -289 -149q-85 0 -258 65q-25 10 -64.5 27.5t-60 25t-54 14.5t-71.5 7q-122 0 -192 -119z" />
<glyph unicode="&#xa0;" />
<glyph unicode="&#xa1;" d="M457 -6l82 688h151l82 -688v-375h-315v375zM465 801v289h299v-289h-299z" />
<glyph unicode="&#xa2;" d="M113 514q0 297 139.5 450.5t402.5 153.5q24 0 78 -4l49 172h109l-55 -194q138 -41 224 -142t95 -250h-291q-24 109 -98 150l-180 -639q18 -4 63 -4q84 0 144.5 56t68.5 134h291q-28 -200 -166.5 -313t-351.5 -113q-51 0 -115 11l-63 -224h-109l70 248 q-150 53 -227.5 184.5t-77.5 323.5zM408 561q0 -113 17 -188t64 -117l177 621h-11q-68 0 -117.5 -26.5t-77 -73t-40 -100t-12.5 -116.5z" />
<glyph unicode="&#xa3;" d="M88 657v123h119l-14 27q-27 59 -38.5 88.5t-21.5 76t-10 99.5q0 92 41 169t109.5 126.5t156 76.5t182.5 27q224 0 359.5 -126t134.5 -347h-268q-12 124 -66.5 184t-157.5 60q-86 0 -145 -52.5t-59 -135.5q0 -76 98 -273h293v-123h-244q10 -58 10 -108q0 -182 -209 -338 l4 -4q127 53 232 53q63 0 137 -25.5t123 -25.5q79 0 201 67l84 -217q-148 -92 -312 -92q-80 0 -201.5 41t-195.5 41q-82 0 -223 -72l-111 199q228 147 228 299q0 65 -52 182h-184z" />
<glyph unicode="&#xa4;" d="M39 283l201 200q-64 103 -64 240q0 63 18 126.5t46 108.5l-201 199l135 137l201 -200q105 65 239 65q138 0 240 -65l201 200l135 -137l-201 -199q68 -106 68 -235q0 -137 -68 -240l201 -200l-135 -136l-201 199q-102 -65 -240 -65q-134 0 -239 65l-201 -199zM406 723 q0 -99 57.5 -165t150.5 -66q94 0 153.5 66.5t59.5 164.5q0 97 -59.5 161t-153.5 64t-151 -64t-57 -161z" />
<glyph unicode="&#xa5;" d="M27 1430h307l295 -603l282 603h291l-307 -601h274v-122h-338l-77 -154h415v-123h-417v-430h-260v430h-416v123h416l-82 154h-334v122h268z" />
<glyph unicode="&#xa6;" d="M500 -39v594h229v-594h-229zM500 915v594h229v-594h-229z" />
<glyph unicode="&#xa7;" d="M115 594q0 104 43.5 166.5t144.5 124.5q-104 94 -104 237q0 110 57.5 195t150 128.5t203.5 43.5q189 0 299.5 -96.5t114.5 -278.5h-260q-12 158 -160 158q-56 0 -101.5 -31.5t-45.5 -83.5q0 -70 80 -108l340 -170q115 -58 175 -131t60 -177q0 -90 -55 -174.5t-139 -122.5 q126 -103 126 -262q0 -123 -62.5 -212.5t-163 -133t-224.5 -43.5q-177 0 -298 107.5t-124 275.5h270q6 -79 50.5 -122.5t123.5 -43.5q67 0 110.5 38.5t43.5 101.5q0 55 -27 83t-94 62l-313 160q-118 60 -169.5 127.5t-51.5 181.5zM354 666q0 -43 24.5 -71.5t72.5 -55.5 l319 -172q88 46 88 135q0 71 -106 127l-310 155q-88 -40 -88 -118z" />
<glyph unicode="&#xa8;" d="M285 1249v236h254v-236h-254zM690 1249v236h254v-236h-254z" />
<glyph unicode="&#xa9;" d="M0 737q0 164 29 293t81.5 218.5t129.5 148.5t170 85.5t206 26.5q107 0 197.5 -26.5t168 -85.5t132 -148t85 -219t30.5 -293q0 -159 -31 -288.5t-86 -219.5t-132.5 -151t-168.5 -89t-195 -28q-140 0 -250.5 44t-193.5 135.5t-127.5 242.5t-44.5 354zM172 737 q0 -159 34.5 -278.5t96.5 -190t140.5 -105t172.5 -34.5q89 0 166 35.5t139.5 107t99 191t36.5 274.5t-36 274t-98.5 189.5t-140 105.5t-166.5 35q-94 0 -172.5 -34t-140.5 -104.5t-96.5 -189t-34.5 -276.5zM266 743q0 199 101.5 321t279.5 122q126 0 215.5 -87t106.5 -227 h-176q-27 136 -146 136q-78 0 -124 -72t-46 -197q0 -104 46.5 -183t127.5 -79q121 0 142 144h184q-19 -140 -110 -231t-216 -91q-171 0 -278 126t-107 318z" />
<glyph unicode="&#xaa;" d="M291 1022q0 83 50 136.5t144 66.5l160 22q60 8 60 45q0 64 -97 64q-49 0 -72.5 -17.5t-29.5 -54.5h-193q19 130 91.5 177.5t220.5 47.5q55 0 101 -9.5t85.5 -29.5t63.5 -57.5t26 -89.5v-342q0 -90 37 -100v-31h-207q-13 26 -20 76q-83 -92 -215 -92q-93 0 -149 50.5 t-56 137.5zM315 584v147h607v-147h-607zM492 1036q0 -30 20.5 -45.5t52.5 -15.5q52 0 95.5 26.5t44.5 73.5v74q-25 -20 -107 -35l-36 -7.5t-28 -8.5t-23.5 -13.5t-13 -19.5t-5.5 -29z" />
<glyph unicode="&#xab;" d="M207 451v245l342 295v-237l-205 -181l205 -180v-237zM678 451v245l342 295v-237l-205 -181l205 -180v-237z" />
<glyph unicode="&#xac;" d="M98 403v230h1032v-633h-229v403h-803z" />
<glyph unicode="&#xad;" d="M328 440v267h571v-267h-571z" />
<glyph unicode="&#xae;" d="M0 737q0 164 29 293t81.5 218.5t129.5 148.5t170 85.5t206 26.5q107 0 197.5 -26.5t168 -85.5t132 -148t85 -219t30.5 -293q0 -159 -31 -288.5t-86 -219.5t-132.5 -151t-168.5 -89t-195 -28q-140 0 -250.5 44t-193.5 135.5t-127.5 242.5t-44.5 354zM172 737 q0 -159 34.5 -278.5t96.5 -190t140.5 -105t172.5 -34.5q89 0 166 35.5t139.5 107t99 191t36.5 274.5t-36 274t-98.5 189.5t-140 105.5t-166.5 35q-94 0 -172.5 -34t-140.5 -104.5t-96.5 -189t-34.5 -276.5zM371 326v833h235q160 0 238 -59t78 -187q0 -193 -183 -231 l195 -356h-203l-170 342h-12v-342h-178zM549 801h29q85 0 118 25.5t33 84.5q0 101 -145 101h-35v-211z" />
<glyph unicode="&#xaf;" d="M262 1288v152h705v-152h-705z" />
<glyph unicode="&#xb0;" d="M322 1165q0 122 85.5 207.5t206.5 85.5q122 0 207.5 -86t85.5 -207t-85.5 -207t-207.5 -86q-121 0 -206.5 85.5t-85.5 207.5zM436 1165q0 -73 52 -125.5t126 -52.5q75 0 127 52t52 126t-52 126t-127 52q-74 0 -126 -52.5t-52 -125.5z" />
<glyph unicode="&#xb1;" d="M98 0v229h1032v-229h-1032zM98 551v229h402v256h229v-256h401v-229h-401v-258h-229v258h-402z" />
<glyph unicode="&#xb2;" d="M285 877q0 119 63 213q67 94 221 188q45 27 67.5 42t51.5 41t41 54.5t12 63.5q0 59 -32 93t-93 34q-64 0 -99.5 -41t-35.5 -115h-188q0 155 88.5 237t251.5 82q133 0 222 -76.5t89 -205.5q0 -102 -49.5 -169t-155.5 -134q-21 -14 -52 -33t-42.5 -27t-29.5 -21t-31 -25.5 t-29 -30.5h387v-170h-657z" />
<glyph unicode="&#xb3;" d="M264 1143h199q3 -135 145 -135q69 0 109.5 34t40.5 91q0 64 -38 95.5t-130 31.5h-64v129h60q145 0 145 124q0 50 -33.5 77.5t-87.5 27.5q-137 0 -143 -139h-186q0 136 86.5 213t244.5 77q81 0 151.5 -23.5t119.5 -78.5t49 -133q0 -133 -131 -186v-5q164 -46 164 -206 q0 -73 -30 -130t-81.5 -91.5t-116.5 -52t-139 -17.5q-150 0 -241.5 76.5t-92.5 220.5z" />
<glyph unicode="&#xb4;" d="M483 1237l195 299h313l-301 -299h-207z" />
<glyph unicode="&#xb5;" d="M59 -424v1514h287v-652q0 -96 56 -158.5t149 -62.5q99 0 153 61t54 173v639h286v-766q0 -71 17 -98t57 -27q19 0 51 4v-207q-54 -14 -108 -14q-243 0 -287 139h-4q-26 -65 -89 -107.5t-132 -42.5q-135 0 -199 127h-4v-522h-287z" />
<glyph unicode="&#xb6;" d="M53 1065q0 187 121 278t379 91h580v-1825h-230v1651h-166v-1651h-229v1102h-14q-92 0 -170.5 21t-139.5 63t-96 111t-35 159z" />
<glyph unicode="&#xb7;" d="M461 440v299h307v-299h-307z" />
<glyph unicode="&#xb8;" d="M348 -416l45 99q100 -33 152 -33q46 0 74 23t28 59q0 33 -23 52t-57 19q-32 0 -82 -16l-43 41l113 172h121l-78 -113q30 9 55 9q80 0 132.5 -43.5t52.5 -122.5q0 -92 -78 -144.5t-180 -52.5q-113 0 -232 51z" />
<glyph unicode="&#xb9;" d="M346 877v172h217v415h-217v125q241 0 279 154h133v-694h205v-172h-617z" />
<glyph unicode="&#xba;" d="M272 1171q0 154 94.5 246t247.5 92t247.5 -92.5t94.5 -245.5q0 -155 -93 -246t-249 -91q-154 0 -248 91.5t-94 245.5zM311 584v147h607v-147h-607zM477 1171q0 -86 35.5 -131t101.5 -45q68 0 104 46t36 130t-36 130.5t-104 46.5q-64 0 -100.5 -45.5t-36.5 -131.5z" />
<glyph unicode="&#xbb;" d="M207 156v237l205 180l-205 181v237l342 -295v-245zM678 156v237l205 180l-205 181v237l342 -295v-245z" />
<glyph unicode="&#xbc;" d="M47 1221v100h23q84 0 131.5 34.5t52.5 92.5h123v-598h151v-129h-462v129h161v371h-180zM96 -39l875 1493h162l-877 -1493h-160zM696 160v125l279 442h168v-455h84v-112h-84v-160h-148v160h-299zM807 272h188q0 193 2 312h-2z" />
<glyph unicode="&#xbd;" d="M47 1221v100h23q84 0 131.5 34.5t52.5 92.5h123v-598h151v-129h-462v129h161v371h-180zM96 -39l875 1493h162l-877 -1493h-160zM705 0q0 96 43 160q45 69 147 139q13 9 44.5 30t41 28t30.5 23.5t27.5 26.5t16.5 26t13 32.5t3 36.5q0 45 -30.5 74.5t-77.5 29.5 q-59 0 -82 -34.5t-23 -102.5h-145q-3 121 61.5 189.5t183.5 68.5q113 0 187 -62t74 -167q0 -81 -35 -129t-123 -109q-16 -11 -42.5 -29t-38.5 -26t-29.5 -21.5t-30.5 -26.5t-27 -30h328v-127h-516z" />
<glyph unicode="&#xbe;" d="M6 944h146q0 -129 110 -129q53 0 83 34t30 87q0 54 -38 78t-116 24h-16v103h22q65 0 96 21t31 77q0 42 -26 68t-68 26q-102 0 -102 -119h-140q0 112 67 173t185 61q101 0 167.5 -54t66.5 -149q0 -92 -90 -139v-2q13 -3 29.5 -12t36.5 -27.5t33 -52t13 -76.5 q0 -104 -73.5 -170t-182.5 -66q-125 0 -195 62t-69 182zM96 -39l875 1493h162l-877 -1493h-160zM696 160v125l279 442h168v-455h84v-112h-84v-160h-148v160h-299zM807 272h188q0 193 2 312h-2z" />
<glyph unicode="&#xbf;" d="M106 37q0 85 29 150t78 113t141 114q80 57 105 108q20 47 20 142h269q12 -122 -23 -218q-38 -96 -184 -198q-125 -88 -125 -203q0 -96 53 -149.5t143 -53.5q204 0 222 236v2h288q0 -232 -149 -354q-149 -125 -361 -125q-107 0 -198 27t-160.5 79.5t-108.5 137t-39 192.5z M461 801v289h299v-289h-299z" />
<glyph unicode="&#xc0;" d="M-2 0l442 1470h355l436 -1470h-334l-76 303h-422l-77 -303h-324zM238 1896h315l192 -299h-206zM465 557h293l-142 582h-4z" />
<glyph unicode="&#xc1;" d="M-2 0l442 1470h355l436 -1470h-334l-76 303h-422l-77 -303h-324zM465 557h293l-142 582h-4zM483 1597l195 299h313l-301 -299h-207z" />
<glyph unicode="&#xc2;" d="M-2 0l442 1470h355l436 -1470h-334l-76 303h-422l-77 -303h-324zM254 1597l231 299h256l234 -299h-232l-131 168l-129 -168h-229zM465 557h293l-142 582h-4z" />
<glyph unicode="&#xc3;" d="M-2 0l442 1470h355l436 -1470h-334l-76 303h-422l-77 -303h-324zM238 1618q49 248 239 248q23 0 39 -4t41.5 -12.5t56.5 -14.5q104 -39 133 -42q8 -1 15 -1q76 0 94 82h133q-49 -246 -225 -246q-38 0 -62.5 6t-87.5 27q-19 6 -47 15.5t-41.5 14t-30 8t-28.5 3.5 q-77 0 -98 -84h-131zM465 557h293l-142 582h-4z" />
<glyph unicode="&#xc4;" d="M-2 0l442 1470h355l436 -1470h-334l-76 303h-422l-77 -303h-324zM285 1610v235h254v-235h-254zM465 557h293l-142 582h-4zM690 1610v235h254v-235h-254z" />
<glyph unicode="&#xc5;" d="M-2 0l442 1470h355l436 -1470h-334l-76 303h-422l-77 -303h-324zM393 1755q0 88 66 150.5t155 62.5q88 0 155 -62.5t67 -150.5q0 -90 -66 -151.5t-156 -61.5q-92 0 -156.5 61.5t-64.5 151.5zM465 557h293l-142 582h-4zM508 1755q0 -47 29.5 -76.5t76.5 -29.5q49 0 78 31 t29 75q0 46 -29 76.5t-78 30.5t-77.5 -30t-28.5 -77z" />
<glyph unicode="&#xc6;" d="M8 0l324 1470h866v-260h-350v-309h295v-260h-295v-381h356v-260h-635v313h-211l-63 -313h-287zM403 555h166v655h-30z" />
<glyph unicode="&#xc7;" d="M82 733q0 163 35 303t102.5 246t174 166.5t241.5 60.5q134 0 244 -60.5t182 -180t86 -279.5h-307q-38 254 -203 254q-65 0 -113.5 -43.5t-75.5 -118.5t-40 -163t-13 -189q0 -98 13 -184.5t40.5 -159.5t76 -115.5t112.5 -42.5q159 0 203 277h307q-29 -237 -162.5 -384.5 t-327.5 -156.5l-51 -76q30 9 56 9q80 0 132 -43.5t52 -122.5q0 -92 -78 -144.5t-180 -52.5q-113 0 -232 51l45 99q100 -33 152 -33q46 0 74 23t28 59q0 33 -23 52t-57 19q-31 0 -81 -16l-43 41l92 141q-151 23 -256 129.5t-155 268t-50 366.5z" />
<glyph unicode="&#xc8;" d="M137 0v1470h959v-260h-658v-309h594v-260h-594v-381h692v-260h-993zM238 1896h315l192 -299h-206z" />
<glyph unicode="&#xc9;" d="M137 0v1470h959v-260h-658v-309h594v-260h-594v-381h692v-260h-993zM483 1597l195 299h313l-301 -299h-207z" />
<glyph unicode="&#xca;" d="M137 0v1470h959v-260h-658v-309h594v-260h-594v-381h692v-260h-993zM254 1597l231 299h256l234 -299h-232l-131 168l-129 -168h-229z" />
<glyph unicode="&#xcb;" d="M137 0v1470h959v-260h-658v-309h594v-260h-594v-381h692v-260h-993zM285 1610v235h254v-235h-254zM690 1610v235h254v-235h-254z" />
<glyph unicode="&#xcc;" d="M180 0v260h281v950h-281v260h869v-260h-281v-950h281v-260h-869zM238 1896h315l192 -299h-206z" />
<glyph unicode="&#xcd;" d="M180 0v260h281v950h-281v260h869v-260h-281v-950h281v-260h-869zM483 1597l195 299h313l-301 -299h-207z" />
<glyph unicode="&#xce;" d="M180 0v260h281v950h-281v260h869v-260h-281v-950h281v-260h-869zM254 1597l231 299h256l234 -299h-232l-131 168l-129 -168h-229z" />
<glyph unicode="&#xcf;" d="M180 0v260h281v950h-281v260h869v-260h-281v-950h281v-260h-869zM285 1610v235h254v-235h-254zM690 1610v235h254v-235h-254z" />
<glyph unicode="&#xd0;" d="M-10 647v254h155v569h465q136 0 240.5 -54t168.5 -150t96 -221t32 -275q0 -123 -20 -234.5t-63 -210t-106 -170.5t-155.5 -113.5t-204.5 -41.5h-453v647h-155zM446 254h115q61 0 108.5 29t78 76t50.5 112.5t28 133.5t8 143q0 469 -267 469h-121v-316h187v-254h-187v-393z " />
<glyph unicode="&#xd1;" d="M137 0v1470h406l258 -1024h4v1024h285v-1470h-390l-272 1049h-4v-1049h-287zM238 1618q49 248 239 248q23 0 39 -4t41.5 -12.5t56.5 -14.5q104 -39 133 -42q8 -1 15 -1q76 0 94 82h133q-49 -246 -225 -246q-38 0 -62.5 6t-87.5 27q-19 6 -47 15.5t-41.5 14t-30 8 t-28.5 3.5q-77 0 -98 -84h-131z" />
<glyph unicode="&#xd2;" d="M74 735q0 232 60.5 404.5t183 271t294.5 98.5q169 0 293 -97t188 -271t64 -406q0 -229 -63 -403t-186 -272.5t-292 -98.5q-255 0 -398.5 209t-143.5 565zM238 1896h315l192 -299h-206zM379 735q0 -147 23.5 -259t78.5 -183.5t137 -71.5q77 0 131 73t78.5 186.5 t24.5 254.5q0 143 -24.5 256t-79.5 185.5t-134 72.5q-81 0 -135 -72.5t-77 -184.5t-23 -257z" />
<glyph unicode="&#xd3;" d="M74 735q0 232 60.5 404.5t183 271t294.5 98.5q169 0 293 -97t188 -271t64 -406q0 -229 -63 -403t-186 -272.5t-292 -98.5q-255 0 -398.5 209t-143.5 565zM379 735q0 -147 23.5 -259t78.5 -183.5t137 -71.5q77 0 131 73t78.5 186.5t24.5 254.5q0 143 -24.5 256 t-79.5 185.5t-134 72.5q-81 0 -135 -72.5t-77 -184.5t-23 -257zM483 1597l195 299h313l-301 -299h-207z" />
<glyph unicode="&#xd4;" d="M74 735q0 232 60.5 404.5t183 271t294.5 98.5q169 0 293 -97t188 -271t64 -406q0 -229 -63 -403t-186 -272.5t-292 -98.5q-255 0 -398.5 209t-143.5 565zM254 1597l231 299h256l234 -299h-232l-131 168l-129 -168h-229zM379 735q0 -147 23.5 -259t78.5 -183.5t137 -71.5 q77 0 131 73t78.5 186.5t24.5 254.5q0 143 -24.5 256t-79.5 185.5t-134 72.5q-81 0 -135 -72.5t-77 -184.5t-23 -257z" />
<glyph unicode="&#xd5;" d="M74 735q0 232 60.5 404.5t183 271t294.5 98.5q169 0 293 -97t188 -271t64 -406q0 -229 -63 -403t-186 -272.5t-292 -98.5q-255 0 -398.5 209t-143.5 565zM238 1618q49 248 239 248q23 0 39 -4t41.5 -12.5t56.5 -14.5q104 -39 133 -42q8 -1 15 -1q76 0 94 82h133 q-49 -246 -225 -246q-38 0 -62.5 6t-87.5 27q-19 6 -47 15.5t-41.5 14t-30 8t-28.5 3.5q-77 0 -98 -84h-131zM379 735q0 -147 23.5 -259t78.5 -183.5t137 -71.5q77 0 131 73t78.5 186.5t24.5 254.5q0 143 -24.5 256t-79.5 185.5t-134 72.5q-81 0 -135 -72.5t-77 -184.5 t-23 -257z" />
<glyph unicode="&#xd6;" d="M74 735q0 232 60.5 404.5t183 271t294.5 98.5q169 0 293 -97t188 -271t64 -406q0 -229 -63 -403t-186 -272.5t-292 -98.5q-255 0 -398.5 209t-143.5 565zM285 1610v235h254v-235h-254zM379 735q0 -147 23.5 -259t78.5 -183.5t137 -71.5q77 0 131 73t78.5 186.5 t24.5 254.5q0 143 -24.5 256t-79.5 185.5t-134 72.5q-81 0 -135 -72.5t-77 -184.5t-23 -257zM690 1610v235h254v-235h-254z" />
<glyph unicode="&#xd7;" d="M98 164l353 354l-353 354l162 162l352 -354l355 354l161 -162l-352 -354l354 -354l-163 -162l-355 354l-350 -354z" />
<glyph unicode="&#xd8;" d="M72 2l135 207q-113 203 -113 526q0 231 58 404t176 271.5t284 98.5q210 0 344 -159l117 176l86 -58l-137 -211q115 -207 115 -522q0 -229 -60.5 -403t-179 -272.5t-281.5 -98.5q-211 0 -344 158l-114 -174zM399 735q0 -114 15 -213l368 563q-59 164 -168 164 q-55 0 -97.5 -41t-67.5 -113t-37.5 -162.5t-12.5 -197.5zM446 385q61 -164 172 -164q71 0 120 73t71 186.5t22 254.5q0 119 -14 211z" />
<glyph unicode="&#xd9;" d="M123 498v972h313v-954q0 -145 43.5 -220t128.5 -75q87 0 135 71.5t48 209.5v968h313v-956q0 -271 -127 -412t-375 -141q-223 0 -351 136.5t-128 400.5zM238 1896h315l192 -299h-206z" />
<glyph unicode="&#xda;" d="M123 498v972h313v-954q0 -145 43.5 -220t128.5 -75q87 0 135 71.5t48 209.5v968h313v-956q0 -271 -127 -412t-375 -141q-223 0 -351 136.5t-128 400.5zM483 1597l195 299h313l-301 -299h-207z" />
<glyph unicode="&#xdb;" d="M123 498v972h313v-954q0 -145 43.5 -220t128.5 -75q87 0 135 71.5t48 209.5v968h313v-956q0 -271 -127 -412t-375 -141q-223 0 -351 136.5t-128 400.5zM254 1597l231 299h256l234 -299h-232l-131 168l-129 -168h-229z" />
<glyph unicode="&#xdc;" d="M123 498v972h313v-954q0 -145 43.5 -220t128.5 -75q87 0 135 71.5t48 209.5v968h313v-956q0 -271 -127 -412t-375 -141q-223 0 -351 136.5t-128 400.5zM285 1610v235h254v-235h-254zM690 1610v235h254v-235h-254z" />
<glyph unicode="&#xdd;" d="M23 1470h362l244 -639l229 639h348l-430 -919v-551h-307v555zM483 1597l195 299h313l-301 -299h-207z" />
<glyph unicode="&#xde;" d="M152 0v1470h307v-198h282q183 0 289.5 -128.5t106.5 -342.5q0 -206 -113 -337.5t-295 -131.5h-270v-332h-307zM459 586h203q85 0 126 54t41 169q0 112 -46.5 160.5t-143.5 48.5h-180v-432z" />
<glyph unicode="&#xdf;" d="M113 0v1104q0 97 40 174t109 123.5t155.5 71t184.5 24.5q93 0 173 -24t143 -70t99 -121.5t36 -171.5q0 -177 -160 -272q244 -101 244 -369q0 -233 -134 -365.5t-368 -132.5q-43 0 -113 13v225q9 0 29.5 -1t30.5 -1q131 0 199.5 63t68.5 185t-77 187t-218 65h-18v196h24 q100 0 152.5 47.5t52.5 134.5q0 85 -48 134t-126 49q-95 0 -144 -47.5t-49 -135.5v-1085h-286z" />
<glyph unicode="&#xe0;" d="M92 289q0 143 83.5 234t244.5 112l289 39q125 15 125 88q0 63 -53 96t-156 33q-108 0 -159.5 -36t-62.5 -118h-276q15 111 52.5 185t103.5 117t153 61t211 18q93 0 171 -16.5t144.5 -51.5t106 -98t43.5 -149v-590q0 -80 14 -120.5t50 -49.5v-43h-308q-28 74 -28 129 q-152 -158 -383 -158q-162 0 -263.5 84.5t-101.5 233.5zM238 1536h315l192 -299h-206zM379 307q0 -61 46 -96t116 -35q69 0 135 24.5t112 75t46 115.5v137q-66 -38 -228 -59q-60 -8 -97 -16.5t-69 -26t-46.5 -46.5t-14.5 -73z" />
<glyph unicode="&#xe1;" d="M92 289q0 143 83.5 234t244.5 112l289 39q125 15 125 88q0 63 -53 96t-156 33q-108 0 -159.5 -36t-62.5 -118h-276q15 111 52.5 185t103.5 117t153 61t211 18q93 0 171 -16.5t144.5 -51.5t106 -98t43.5 -149v-590q0 -80 14 -120.5t50 -49.5v-43h-308q-28 74 -28 129 q-152 -158 -383 -158q-162 0 -263.5 84.5t-101.5 233.5zM379 307q0 -61 46 -96t116 -35q69 0 135 24.5t112 75t46 115.5v137q-66 -38 -228 -59q-60 -8 -97 -16.5t-69 -26t-46.5 -46.5t-14.5 -73zM483 1237l195 299h313l-301 -299h-207z" />
<glyph unicode="&#xe2;" d="M92 289q0 143 83.5 234t244.5 112l289 39q125 15 125 88q0 63 -53 96t-156 33q-108 0 -159.5 -36t-62.5 -118h-276q15 111 52.5 185t103.5 117t153 61t211 18q93 0 171 -16.5t144.5 -51.5t106 -98t43.5 -149v-590q0 -80 14 -120.5t50 -49.5v-43h-308q-28 74 -28 129 q-152 -158 -383 -158q-162 0 -263.5 84.5t-101.5 233.5zM254 1237l231 299h256l234 -299h-232l-131 168l-129 -168h-229zM379 307q0 -61 46 -96t116 -35q69 0 135 24.5t112 75t46 115.5v137q-66 -38 -228 -59q-60 -8 -97 -16.5t-69 -26t-46.5 -46.5t-14.5 -73z" />
<glyph unicode="&#xe3;" d="M92 289q0 143 83.5 234t244.5 112l289 39q125 15 125 88q0 63 -53 96t-156 33q-108 0 -159.5 -36t-62.5 -118h-276q15 111 52.5 185t103.5 117t153 61t211 18q93 0 171 -16.5t144.5 -51.5t106 -98t43.5 -149v-590q0 -80 14 -120.5t50 -49.5v-43h-308q-28 74 -28 129 q-152 -158 -383 -158q-162 0 -263.5 84.5t-101.5 233.5zM238 1257q49 248 239 248q24 0 39 -3t42 -11.5t56 -15.5q16 -5 46.5 -16.5t42 -15t29 -7.5t30.5 -4q76 0 94 81h133q-49 -245 -225 -245q-12 0 -21 0.5t-20.5 2t-17 2.5t-19.5 5t-19 5.5l-25 7.5t-28 9 q-19 6 -47 15.5t-41.5 14t-30 8t-28.5 3.5q-77 0 -98 -84h-131zM379 307q0 -61 46 -96t116 -35q69 0 135 24.5t112 75t46 115.5v137q-66 -38 -228 -59q-60 -8 -97 -16.5t-69 -26t-46.5 -46.5t-14.5 -73z" />
<glyph unicode="&#xe4;" d="M92 289q0 143 83.5 234t244.5 112l289 39q125 15 125 88q0 63 -53 96t-156 33q-108 0 -159.5 -36t-62.5 -118h-276q15 111 52.5 185t103.5 117t153 61t211 18q93 0 171 -16.5t144.5 -51.5t106 -98t43.5 -149v-590q0 -80 14 -120.5t50 -49.5v-43h-308q-28 74 -28 129 q-152 -158 -383 -158q-162 0 -263.5 84.5t-101.5 233.5zM285 1249v236h254v-236h-254zM379 307q0 -61 46 -96t116 -35q69 0 135 24.5t112 75t46 115.5v137q-66 -38 -228 -59q-60 -8 -97 -16.5t-69 -26t-46.5 -46.5t-14.5 -73zM690 1249v236h254v-236h-254z" />
<glyph unicode="&#xe5;" d="M92 289q0 143 83.5 234t244.5 112l289 39q125 15 125 88q0 63 -53 96t-156 33q-108 0 -159.5 -36t-62.5 -118h-276q15 111 52.5 185t103.5 117t153 61t211 18q93 0 171 -16.5t144.5 -51.5t106 -98t43.5 -149v-590q0 -80 14 -120.5t50 -49.5v-43h-308q-28 74 -28 129 q-152 -158 -383 -158q-162 0 -263.5 84.5t-101.5 233.5zM379 307q0 -61 46 -96t116 -35q69 0 135 24.5t112 75t46 115.5v137q-66 -38 -228 -59q-60 -8 -97 -16.5t-69 -26t-46.5 -46.5t-14.5 -73zM393 1395q0 88 66 150.5t155 62.5q88 0 155 -62.5t67 -150.5 q0 -90 -66 -151.5t-156 -61.5q-92 0 -156.5 61.5t-64.5 151.5zM508 1395q0 -47 29.5 -77t76.5 -30q49 0 78 31.5t29 75.5q0 46 -28.5 76t-78.5 30q-49 0 -77.5 -29.5t-28.5 -76.5z" />
<glyph unicode="&#xe6;" d="M37 289q0 276 246 344q85 24 128 45t53.5 38t10.5 44q0 129 -61 129q-49 0 -69.5 -35.5t-20.5 -118.5h-254q20 219 94.5 300t249.5 81q70 0 132 -29t87 -92q32 56 87.5 88.5t108.5 32.5q118 0 197 -78t114.5 -209t35.5 -311v-51h-469q1 -130 29.5 -198t78.5 -68 q26 0 46.5 31.5t31.5 86.5h270q-34 -165 -128.5 -256.5t-217.5 -91.5q-166 0 -242 135q-37 -64 -94 -99.5t-123 -35.5q-160 0 -240.5 73.5t-80.5 244.5zM301 307q0 -131 74 -131q36 0 66.5 59t33.5 156v137q-25 -39 -78 -59q-54 -15 -75 -46.5t-21 -115.5zM713 651h190 q-5 100 -29 165t-61 65q-91 0 -100 -230z" />
<glyph unicode="&#xe7;" d="M113 514q0 297 139.5 450.5t402.5 153.5q133 0 242 -47t179.5 -143.5t78.5 -227.5h-291q-39 177 -209 177q-68 0 -117.5 -26.5t-77 -73t-40 -100t-12.5 -116.5q0 -66 5 -114.5t20 -96t41 -77.5t70 -48t105 -18q84 0 144.5 56t68.5 134h291q-26 -190 -153 -301.5 t-324 -122.5l-58 -86q30 9 56 9q80 0 132 -43.5t52 -122.5q0 -92 -78 -144.5t-180 -52.5q-112 0 -231 51l45 99q100 -33 151 -33q47 0 75 23t28 59q0 33 -23 52t-57 19q-32 0 -82 -16l-43 41l96 147q-219 21 -332.5 163.5t-113.5 375.5z" />
<glyph unicode="&#xe8;" d="M92 530q0 268 140.5 428t412.5 160q134 0 234 -43.5t160 -125t89 -189t29 -242.5v-51h-778q10 -131 84 -198.5t201 -67.5q142 0 186 118h295q-50 -167 -177 -257.5t-302 -90.5q-277 0 -425.5 146.5t-148.5 412.5zM238 1536h315l192 -299h-206zM387 653h475 q-11 103 -66.5 166.5t-154.5 63.5q-227 0 -254 -230z" />
<glyph unicode="&#xe9;" d="M92 530q0 268 140.5 428t412.5 160q134 0 234 -43.5t160 -125t89 -189t29 -242.5v-51h-778q10 -131 84 -198.5t201 -67.5q142 0 186 118h295q-50 -167 -177 -257.5t-302 -90.5q-277 0 -425.5 146.5t-148.5 412.5zM387 653h475q-11 103 -66.5 166.5t-154.5 63.5 q-227 0 -254 -230zM483 1237l195 299h313l-301 -299h-207z" />
<glyph unicode="&#xea;" d="M92 530q0 268 140.5 428t412.5 160q134 0 234 -43.5t160 -125t89 -189t29 -242.5v-51h-778q10 -131 84 -198.5t201 -67.5q142 0 186 118h295q-50 -167 -177 -257.5t-302 -90.5q-277 0 -425.5 146.5t-148.5 412.5zM254 1237l231 299h256l234 -299h-232l-131 168l-129 -168 h-229zM387 653h475q-11 103 -66.5 166.5t-154.5 63.5q-227 0 -254 -230z" />
<glyph unicode="&#xeb;" d="M92 530q0 268 140.5 428t412.5 160q134 0 234 -43.5t160 -125t89 -189t29 -242.5v-51h-778q10 -131 84 -198.5t201 -67.5q142 0 186 118h295q-50 -167 -177 -257.5t-302 -90.5q-277 0 -425.5 146.5t-148.5 412.5zM285 1249v236h254v-236h-254zM387 653h475 q-11 103 -66.5 166.5t-154.5 63.5q-227 0 -254 -230zM690 1249v236h254v-236h-254z" />
<glyph unicode="&#xec;" d="M158 0v205h334v680h-314v205h600v-885h314v-205h-934zM217 1536h315l193 -299h-207z" />
<glyph unicode="&#xed;" d="M158 0v205h334v680h-314v205h600v-885h314v-205h-934zM463 1237l194 299h314l-301 -299h-207z" />
<glyph unicode="&#xee;" d="M158 0v205h334v680h-314v205h600v-885h314v-205h-934zM233 1237l232 299h256l233 -299h-231l-131 168l-129 -168h-230z" />
<glyph unicode="&#xef;" d="M158 0v205h334v680h-314v205h600v-885h314v-205h-934zM264 1249v236h254v-236h-254zM670 1249v236h254v-236h-254z" />
<glyph unicode="&#xf0;" d="M57 535q0 226 141 374t363 148q153 0 252 -99l4 5q-57 126 -196 247l-222 -96l-129 107l222 96q-67 49 -152 92l221 100q91 -37 162 -90l209 90l127 -106l-207 -90q145 -126 232 -319.5t87 -389.5q0 -183 -61 -324t-188 -225t-304 -84q-258 0 -409.5 151.5t-151.5 412.5z M352 526q0 -142 66.5 -227.5t197.5 -85.5q88 0 148.5 45t86.5 115.5t26 161.5q0 119 -71 198.5t-192 79.5q-126 0 -194 -79.5t-68 -207.5z" />
<glyph unicode="&#xf1;" d="M141 0v1090h277v-160h4q102 188 323 188q168 0 274.5 -98t106.5 -266v-754h-286v678q0 199 -187 199q-103 0 -164 -67.5t-61 -184.5v-625h-287zM258 1257q49 248 240 248q24 0 39 -3t42 -11.5t56 -15.5q17 -6 46.5 -17t41.5 -14.5t29 -7.5t30 -4q77 0 95 81h133 q-49 -245 -226 -245q-12 0 -21.5 0.5t-20 2t-16.5 2.5t-19 5t-19 5.5t-24.5 7.5t-28.5 9q-18 6 -47 15.5t-42 14t-30 8t-29 3.5q-77 0 -98 -84h-131z" />
<glyph unicode="&#xf2;" d="M80 545q0 259 144.5 416t387.5 157q239 0 387 -159t148 -414q0 -258 -145.5 -416t-389.5 -158q-243 0 -387.5 158t-144.5 416zM238 1536h315l192 -299h-206zM375 545q0 -164 60.5 -248t176.5 -84q117 0 178.5 86t61.5 246q0 159 -61 245.5t-179 86.5q-113 0 -175 -84 t-62 -248z" />
<glyph unicode="&#xf3;" d="M80 545q0 259 144.5 416t387.5 157q239 0 387 -159t148 -414q0 -258 -145.5 -416t-389.5 -158q-243 0 -387.5 158t-144.5 416zM375 545q0 -164 60.5 -248t176.5 -84q117 0 178.5 86t61.5 246q0 159 -61 245.5t-179 86.5q-113 0 -175 -84t-62 -248zM483 1237l195 299h313 l-301 -299h-207z" />
<glyph unicode="&#xf4;" d="M80 545q0 259 144.5 416t387.5 157q239 0 387 -159t148 -414q0 -258 -145.5 -416t-389.5 -158q-243 0 -387.5 158t-144.5 416zM254 1237l231 299h256l234 -299h-232l-131 168l-129 -168h-229zM375 545q0 -164 60.5 -248t176.5 -84q117 0 178.5 86t61.5 246 q0 159 -61 245.5t-179 86.5q-113 0 -175 -84t-62 -248z" />
<glyph unicode="&#xf5;" d="M80 545q0 259 144.5 416t387.5 157q239 0 387 -159t148 -414q0 -258 -145.5 -416t-389.5 -158q-243 0 -387.5 158t-144.5 416zM238 1257q49 248 239 248q24 0 39 -3t42 -11.5t56 -15.5q16 -5 46.5 -16.5t42 -15t29 -7.5t30.5 -4q76 0 94 81h133q-49 -245 -225 -245 q-12 0 -21 0.5t-20.5 2t-17 2.5t-19.5 5t-19 5.5l-25 7.5t-28 9q-19 6 -47 15.5t-41.5 14t-30 8t-28.5 3.5q-77 0 -98 -84h-131zM375 545q0 -164 60.5 -248t176.5 -84q117 0 178.5 86t61.5 246q0 159 -61 245.5t-179 86.5q-113 0 -175 -84t-62 -248z" />
<glyph unicode="&#xf6;" d="M80 545q0 259 144.5 416t387.5 157q239 0 387 -159t148 -414q0 -258 -145.5 -416t-389.5 -158q-243 0 -387.5 158t-144.5 416zM285 1249v236h254v-236h-254zM375 545q0 -164 60.5 -248t176.5 -84q117 0 178.5 86t61.5 246q0 159 -61 245.5t-179 86.5q-113 0 -175 -84 t-62 -248zM690 1249v236h254v-236h-254z" />
<glyph unicode="&#xf7;" d="M98 410v229h1032v-229h-1032zM457 -39v299h307v-299h-307zM457 788v299h307v-299h-307z" />
<glyph unicode="&#xf8;" d="M74 0l133 150q-127 155 -127 395q0 259 144.5 416t387.5 157q200 0 342 -117l129 146l70 -66l-131 -149q125 -157 125 -387q0 -258 -145.5 -416t-389.5 -158q-199 0 -336 109l-122 -139zM375 545q0 -102 24 -176l381 434q-61 74 -168 74q-113 0 -175 -84t-62 -248z M451 279q57 -66 161 -66q117 0 178.5 86t61.5 246q0 89 -23 166z" />
<glyph unicode="&#xf9;" d="M123 373v717h287v-676q0 -201 186 -201q105 0 163 69t58 179v629h287v-1090h-275v154h-4q-109 -183 -331 -183q-181 0 -276 107t-95 295zM238 1536h315l192 -299h-206z" />
<glyph unicode="&#xfa;" d="M123 373v717h287v-676q0 -201 186 -201q105 0 163 69t58 179v629h287v-1090h-275v154h-4q-109 -183 -331 -183q-181 0 -276 107t-95 295zM483 1237l195 299h313l-301 -299h-207z" />
<glyph unicode="&#xfb;" d="M123 373v717h287v-676q0 -201 186 -201q105 0 163 69t58 179v629h287v-1090h-275v154h-4q-109 -183 -331 -183q-181 0 -276 107t-95 295zM254 1237l231 299h256l234 -299h-232l-131 168l-129 -168h-229z" />
<glyph unicode="&#xfc;" d="M123 373v717h287v-676q0 -201 186 -201q105 0 163 69t58 179v629h287v-1090h-275v154h-4q-109 -183 -331 -183q-181 0 -276 107t-95 295zM285 1249v236h254v-236h-254zM690 1249v236h254v-236h-254z" />
<glyph unicode="&#xfd;" d="M31 1090h319l275 -803h4l264 803h303l-416 -1092q-79 -205 -123 -289q-47 -91 -109.5 -119t-189.5 -28q-70 0 -129 6v227q20 -4 78 -4q80 0 111 33t57 129zM483 1237l195 299h313l-301 -299h-207z" />
<glyph unicode="&#xfe;" d="M147 -424v1894h275v-538h6q104 186 324 186q111 0 199 -45.5t142 -124t82.5 -178.5t28.5 -213q0 -93 -16 -177t-52 -159.5t-88.5 -130.5t-130 -87t-172.5 -32q-216 0 -307 168h-4v-563h-287zM422 520q0 -137 63 -225t189 -88q61 0 108 29.5t73.5 78.5t40 105t13.5 117 q0 162 -63.5 247.5t-179.5 85.5q-244 0 -244 -350z" />
<glyph unicode="&#xff;" d="M31 1090h319l275 -803h4l264 803h303l-416 -1092q-79 -205 -123 -289q-47 -91 -109.5 -119t-189.5 -28q-70 0 -129 6v227q20 -4 78 -4q80 0 111 33t57 129zM285 1249v236h254v-236h-254zM690 1249v236h254v-236h-254z" />
<glyph unicode="&#x152;" d="M27 735q0 117 17 223t55 200.5t93.5 163t138.5 108.5t185 40h666v-260h-314v-309h267v-260h-267v-381h314v-260h-674q-124 0 -218.5 59.5t-150.5 163t-84 232.5t-28 280zM328 733q0 -88 11 -168t35 -152.5t68.5 -115.5t104.5 -43h41v963h-29q-112 0 -171.5 -131 t-59.5 -353z" />
<glyph unicode="&#x153;" d="M41 545q0 264 95.5 418.5t271.5 154.5q129 0 227 -121q82 121 207 121q171 0 259.5 -163t88.5 -437v-51h-445q6 -266 115 -266q15 0 32.5 32.5t27.5 85.5h258q-33 -165 -119 -256.5t-197 -91.5q-156 0 -246 115q-70 -115 -206 -115q-176 0 -272.5 156t-96.5 418zM291 545 q0 -332 127 -332q54 0 82 86.5t28 245.5q0 158 -28.5 245t-81.5 87q-127 0 -127 -332zM754 653h178q-9 101 -33.5 165.5t-58.5 64.5q-77 0 -86 -230z" />
<glyph unicode="&#x178;" d="M23 1470h362l244 -639l229 639h348l-430 -919v-551h-307v555zM285 1610v235h254v-235h-254zM690 1610v235h254v-235h-254z" />
<glyph unicode="&#x2c6;" d="M254 1237l231 299h256l234 -299h-232l-131 168l-129 -168h-229z" />
<glyph unicode="&#x2dc;" d="M238 1257q49 248 239 248q24 0 39 -3t42 -11.5t56 -15.5q16 -5 46.5 -16.5t42 -15t29 -7.5t30.5 -4q76 0 94 81h133q-49 -245 -225 -245q-12 0 -21 0.5t-20.5 2t-17 2.5t-19.5 5t-19 5.5l-25 7.5t-28 9q-19 6 -47 15.5t-41.5 14t-30 8t-28.5 3.5q-77 0 -98 -84h-131z" />
<glyph unicode="&#x2000;" horiz-adv-x="984" />
<glyph unicode="&#x2001;" horiz-adv-x="1968" />
<glyph unicode="&#x2002;" horiz-adv-x="984" />
<glyph unicode="&#x2003;" horiz-adv-x="1968" />
<glyph unicode="&#x2004;" horiz-adv-x="656" />
<glyph unicode="&#x2005;" horiz-adv-x="492" />
<glyph unicode="&#x2006;" horiz-adv-x="328" />
<glyph unicode="&#x2007;" horiz-adv-x="328" />
<glyph unicode="&#x2008;" horiz-adv-x="246" />
<glyph unicode="&#x2009;" horiz-adv-x="393" />
<glyph unicode="&#x200a;" horiz-adv-x="109" />
<glyph unicode="&#x2010;" d="M328 440v267h571v-267h-571z" />
<glyph unicode="&#x2011;" d="M328 440v267h571v-267h-571z" />
<glyph unicode="&#x2012;" d="M328 440v267h571v-267h-571z" />
<glyph unicode="&#x2013;" d="M102 465v217h1024v-217h-1024z" />
<glyph unicode="&#x2014;" d="M0 465v217h1229v-217h-1229z" />
<glyph unicode="&#x2018;" d="M469 930v211q0 289 283 348v-105q-152 -40 -152 -194h158v-260h-289z" />
<glyph unicode="&#x2019;" d="M471 1210v260h287v-210q0 -290 -281 -349v105q150 40 150 194h-156z" />
<glyph unicode="&#x201a;" d="M471 0v260h287v-211q0 -289 -281 -348v104q150 41 150 195h-156z" />
<glyph unicode="&#x201c;" d="M227 930v211q0 289 283 348v-105q-152 -40 -152 -194h158v-260h-289zM713 930v211q0 289 282 348v-105q-151 -40 -151 -194h157v-260h-288z" />
<glyph unicode="&#x201d;" d="M227 1210v260h287v-210q0 -290 -281 -349v105q150 40 150 194h-156zM713 1210v260h286v-210q0 -290 -280 -349v105q149 40 149 194h-155z" />
<glyph unicode="&#x201e;" d="M227 0v260h287v-211q0 -289 -281 -348v104q150 41 150 195h-156zM713 0v260h286v-211q0 -289 -280 -348v104q149 40 149 195h-155z" />
<glyph unicode="&#x2022;" d="M291 735q0 137 91.5 230.5t227.5 93.5t231 -94.5t95 -229.5t-94.5 -228t-231.5 -93q-136 0 -227.5 92t-91.5 229z" />
<glyph unicode="&#x2026;" d="M25 0v299h307v-299h-307zM461 0v299h307v-299h-307zM897 0v299h307v-299h-307z" />
<glyph unicode="&#x202f;" horiz-adv-x="393" />
<glyph unicode="&#x2039;" d="M442 451v245l342 295v-237l-204 -181l204 -180v-237z" />
<glyph unicode="&#x203a;" d="M442 156v237l205 180l-205 181v237l342 -295v-245z" />
<glyph unicode="&#x205f;" horiz-adv-x="492" />
<glyph unicode="&#x20ac;" d="M47 543l16 112h105q0 70 4 148h-125l16 112h121q99 555 523 555q186 0 300.5 -104.5t129.5 -288.5h-273q-35 137 -172 137q-176 0 -211 -299h357l-19 -112h-348q-2 -39 -2 -148h326l-19 -112h-299q38 -326 213 -326q64 0 112.5 44.5t63.5 121.5h275q-21 -179 -144 -299 q-123 -123 -319 -123q-117 0 -210 48t-152 131t-94 184t-46 219h-129z" />
<glyph unicode="&#x2122;" d="M29 1296v174h424v-174h-115v-669h-197v669h-112zM502 627v843h270l76 -512l78 512h266v-843h-174v618h-4l-96 -618h-142l-94 618h-2v-618h-178z" />
<glyph unicode="&#xe000;" horiz-adv-x="1085" d="M0 0v1085h1085v-1085h-1085z" />
<glyph unicode="&#xfb01;" d="M-27 885v205h174v26q0 192 83.5 283.5t265.5 91.5q57 0 180 -6v-234l-127 2q-76 0 -95.5 -30.5t-19.5 -132.5h268v-205h-268v-885h-287v885h-174zM778 0v1090h287v-1090h-287zM778 1219v266h287v-266h-287z" />
<glyph unicode="&#xfb02;" d="M-27 885v205h174v26q0 192 83.5 283.5t265.5 91.5q57 0 180 -6v-234l-127 2q-76 0 -95.5 -30.5t-19.5 -132.5h268v-205h-268v-885h-287v885h-174zM778 0v1485h287v-1485h-287z" />
<glyph unicode="&#xfb03;" d="M-14 885v205h92v88q0 163 67.5 238t225.5 75q33 0 98 -6v-234q-18 2 -45 2q-50 0 -62 -21.5t-12 -98.5v-43h144v88q0 166 64 239.5t230 73.5q38 0 99 -6v-234q-16 2 -45 2q-39 0 -56.5 -25t-17.5 -95v-43h422v-1090h-287v885h-135v-885h-274v885h-144v-885h-272v885h-92z M946 1219v266h244v-266h-244z" />
<glyph unicode="&#xfb04;" d="M-14 885v205h92v88q0 163 67.5 238t225.5 75q33 0 98 -6v-234q-18 2 -45 2q-50 0 -62 -21.5t-12 -98.5v-43h144v88q0 165 66 239t233 74q15 0 77 -6v-234q-16 2 -45 2q-28 0 -42.5 -26t-14.5 -94v-43h104v-205h-104v-885h-274v885h-144v-885h-272v885h-92zM903 0v1485 h287v-1485h-287z" />
</font>
</defs>
</svg>
