<?xml version="1.0" standalone="no"?>
<!DOCTYPE svg PUBLIC "-//W3C//DTD SVG 1.1//EN" "http://www.w3.org/Graphics/SVG/1.1/DTD/svg11.dtd" >
<svg xmlns="http://www.w3.org/2000/svg">
<metadata></metadata>
<defs>
<font id="hellvetica_monospaced_proRg" horiz-adv-x="1228" >
<font-face units-per-em="2048" ascent="1470" descent="-578" />
<missing-glyph horiz-adv-x="500" />
<glyph horiz-adv-x="2048" />
<glyph horiz-adv-x="2048" />
<glyph horiz-adv-x="682" />
<glyph unicode="&#xd;" />
<glyph unicode=" " />
<glyph unicode="!" d="M514 0v209h199v-209h-199zM514 985v485h199v-485l-49 -635h-101z" />
<glyph unicode="&#x22;" d="M393 948v522h150v-522h-150zM684 948v522h150v-522h-150z" />
<glyph unicode="#" d="M100 430l19 129h211l39 291h-211l18 129h211l59 430h138l-60 -430h254l60 430h137l-60 -430h211l-18 -129h-211l-41 -291h211l-18 -129h-211l-60 -430h-135l59 430h-256l-59 -430h-135l59 430h-211zM465 559h256l39 291h-254z" />
<glyph unicode="$" d="M115 436h180q4 -83 17 -136.5t44.5 -93t81.5 -61t129 -34.5v542q-214 43 -319 138q-105 91 -105 266q0 168 119 283.5t297 115.5h8v131h97v-131q400 -30 415 -389h-174q-18 208 -241 238v-488q254 -61 352 -155q98 -91 98 -261q0 -206 -122.5 -320t-327.5 -120v-197h-97 v197q-452 18 -452 475zM324 1069q0 -185 243 -231v469h-4q-103 0 -171 -68.5t-68 -169.5zM664 109q123 5 196.5 75t73.5 185q0 203 -270 262v-522z" />
<glyph unicode="%" d="M82 1141q0 152 70.5 225.5t187.5 73.5q114 0 186 -74t72 -225q0 -149 -72 -224t-186 -75q-117 0 -187.5 74.5t-70.5 224.5zM92 -41l924 1493h119l-924 -1493h-119zM201 1141q0 -96 38.5 -143.5t100.5 -47.5q58 0 98.5 48t40.5 143q0 94 -40.5 142t-98.5 48 q-62 0 -100.5 -47.5t-38.5 -142.5zM631 272q0 152 70.5 225.5t187.5 73.5q114 0 186 -74t72 -225q0 -149 -72 -224t-186 -75q-117 0 -187.5 74.5t-70.5 224.5zM750 272q0 -96 38 -143t101 -47q58 0 98.5 47.5t40.5 142.5q0 94 -40.5 142.5t-98.5 48.5q-62 0 -100.5 -48 t-38.5 -143z" />
<glyph unicode="&#x26;" d="M61 369q0 69 16.5 127t42.5 100.5t71.5 83.5t90 70t111.5 67q-35 41 -52 62t-41.5 57t-35.5 63t-19.5 65t-8.5 79q0 145 99.5 236t248.5 91q145 0 237 -81.5t92 -221.5q0 -67 -18.5 -122.5t-58 -102.5t-80 -81t-105.5 -79l267 -319q43 90 61 229h170q-20 -185 -119 -375 l262 -317h-235l-137 168q-87 -104 -188 -151.5t-240 -47.5q-194 0 -312.5 107t-118.5 293zM240 369q0 -104 80.5 -174t185.5 -70q196 0 319 164l-333 405q-17 -12 -56.5 -39t-55 -38.5t-45 -35.5t-41.5 -42t-27.5 -45t-21 -57.5t-5.5 -67.5zM410 1155q0 -112 147 -256 q184 117 184 254q0 77 -44.5 119.5t-114.5 42.5q-83 0 -127.5 -43t-44.5 -117z" />
<glyph unicode="'" d="M539 948v522h149v-522h-149z" />
<glyph unicode="(" d="M377 535q0 253 82 483q77 220 264 483h125q-185 -332 -230 -528q-49 -203 -49 -451q0 -239 66 -452q64 -210 215 -494h-121q-173 254 -262 469q-90 224 -90 490z" />
<glyph unicode=")" d="M377 1501h119q168 -243 262 -469q92 -222 92 -489q0 -246 -82 -484q-82 -231 -264 -483h-125q180 322 227 528q49 203 49 451q0 242 -65 455q-67 216 -213 491z" />
<glyph unicode="*" d="M297 1210l41 113l215 -78v225h123v-225l215 78l41 -113l-221 -69l137 -189l-100 -69l-134 192l-133 -192l-100 69l137 189z" />
<glyph unicode="+" d="M96 442v150h445v442h149v-442h443v-150h-443v-442h-149v442h-445z" />
<glyph unicode="," d="M508 0v217h213v-201q0 -274 -213 -317v94q108 12 108 207h-108z" />
<glyph unicode="-" d="M362 475v184h502v-184h-502z" />
<glyph unicode="." d="M508 0v217h213v-217h-213z" />
<glyph unicode="/" d="M295 -39l504 1548h135l-502 -1548h-137z" />
<glyph unicode="0" d="M121 700q0 95 9.5 181t31 171.5t59.5 154t91 122t130 82.5t172 29q94 0 171 -29t130 -82.5t91 -122t59.5 -154t31.5 -171.5t11 -181q0 -117 -13.5 -218.5t-48.5 -199.5t-89.5 -167t-142 -111.5t-200.5 -42.5q-95 0 -172.5 29.5t-130.5 83t-91 122t-59 154t-30.5 170.5 t-9.5 180zM313 700q0 -281 77 -429t224 -148q301 0 301 577q0 288 -76.5 433t-224.5 145q-146 0 -223.5 -146t-77.5 -432z" />
<glyph unicode="1" d="M242 0v170h342v852h-336v143q176 6 262 56q85 52 125 219h141v-1270h309v-170h-843z" />
<glyph unicode="2" d="M121 0q6 199 88 338q78 133 250 233l258 150q73 43 111.5 77t61.5 88t23 132q0 118 -80.5 189t-203.5 71q-148 0 -218.5 -97t-72.5 -257h-180q-3 246 126.5 381t370.5 135q195 0 323 -119t128 -311q0 -144 -71 -246.5t-216 -181.5l-248 -136q-220 -122 -247 -276h782 v-170h-985z" />
<glyph unicode="3" d="M115 440h186q3 -163 80 -240t227 -77q134 0 224 75t90 203q0 265 -336 265q-55 0 -82 -2v155q31 -4 94 -4q130 0 202 60t72 176q0 107 -75.5 167t-190.5 60q-270 0 -280 -309h-176q0 227 118.5 349t345.5 122q124 0 223 -41.5t160.5 -129t61.5 -208.5q0 -220 -185 -297 v-4q240 -82 240 -336q0 -146 -67.5 -252t-183.5 -158.5t-267 -52.5q-460 0 -481 479z" />
<glyph unicode="4" d="M104 350v176l660 914h149v-934h211v-156h-211v-350h-180v350h-629zM270 506h463v653h-4z" />
<glyph unicode="5" d="M121 356h186q14 -117 91.5 -178t213.5 -61q135 0 219 94t84 233q0 143 -88.5 232.5t-230.5 89.5q-162 0 -266 -137l-156 8l109 770h745v-174h-610l-62 -395q122 90 279 90q197 0 335 -132t138 -329q0 -230 -139 -369t-373 -139q-210 0 -332.5 103t-142.5 294z" />
<glyph unicode="6" d="M123 670q0 97 11 186.5t35.5 178t66.5 160.5t99 127.5t138.5 86.5t181.5 31q112 0 206 -45.5t152.5 -134t61.5 -203.5h-176q-41 221 -248 221q-74 0 -133.5 -35t-97 -90t-63.5 -127t-36.5 -142t-11.5 -139l4 -4q115 177 342 177q196 0 323.5 -128.5t127.5 -328.5 q0 -217 -129.5 -358.5t-343.5 -141.5q-250 0 -380 179t-130 530zM334 442q0 -139 83.5 -229t219.5 -90q134 0 208.5 94.5t74.5 235.5q0 133 -78.5 218t-212.5 85q-136 0 -215.5 -87t-79.5 -227z" />
<glyph unicode="7" d="M117 1233v176h995v-158q-206 -209 -375 -565q-171 -360 -217 -686h-198q31 275 198 625q176 361 389 608h-792z" />
<glyph unicode="8" d="M123 418q0 244 244 346q-195 77 -195 280q0 182 122 289t314 107q122 0 221 -41.5t160.5 -127t63.5 -202.5q0 -217 -185 -303q114 -49 175 -140.5t61 -209.5q0 -211 -135.5 -333t-352.5 -122q-220 0 -356.5 117.5t-136.5 339.5zM315 410q0 -136 84 -211.5t224 -75.5 q130 0 209 80t79 209q0 119 -85 191.5t-214 72.5q-128 0 -212.5 -72.5t-84.5 -193.5zM358 1053q0 -99 75 -160.5t177 -61.5q109 0 182.5 63t73.5 169q0 105 -76.5 160t-191.5 55q-107 0 -173.5 -60.5t-66.5 -164.5z" />
<glyph unicode="9" d="M131 946q0 214 126 354t337 140q250 0 377 -168t127 -500q0 -116 -14.5 -224t-52 -217t-95 -189.5t-150.5 -130.5t-211 -50q-122 0 -218.5 46t-152.5 134t-57 205h181q9 -109 72 -172t171 -63q44 0 81.5 11t66 27t53.5 45t42 55t32 68.5t24 72.5t18.5 80t14.5 79t12 80 q2 13 3 20l-5 4q-117 -172 -329 -172q-206 0 -329.5 128.5t-123.5 336.5zM317 954q0 -311 293 -311q136 0 206.5 90t70.5 238q0 139 -76 223t-215 84q-132 0 -205.5 -92t-73.5 -232z" />
<glyph unicode=":" d="M508 0v217h213v-217h-213zM508 840v217h213v-217h-213z" />
<glyph unicode=";" d="M508 0v217h213v-201q0 -274 -213 -317v94q108 12 108 207h-108zM508 840v217h213v-217h-213z" />
<glyph unicode="&#x3c;" d="M96 446v144l1037 424v-164l-836 -332l836 -332v-163z" />
<glyph unicode="=" d="M96 236v149h1037v-149h-1037zM96 649v150h1037v-150h-1037z" />
<glyph unicode="&#x3e;" d="M96 23v163l836 332l-836 332v164l1037 -424v-144z" />
<glyph unicode="?" d="M168 1010q-6 148 52 257.5t163 165.5t244 56q188 0 311 -109.5t123 -292.5q0 -45 -9 -82.5t-19 -62.5t-39.5 -61t-47 -54t-65.5 -65q-138 -131 -166 -199q-25 -64 -25 -188h-180q0 134 29 223q29 80 166 217q14 14 43 42.5t38.5 38t28.5 31.5t24.5 35.5t14.5 36 t11.5 46.5t2.5 55q0 105 -69.5 169t-177.5 64q-273 0 -273 -323h-180zM506 0v209h199v-209h-199z" />
<glyph unicode="@" d="M70 522q0 219 71.5 400.5t203.5 289t298 107.5q105 0 200 -47.5t165 -130.5t111.5 -203t41.5 -258q0 -164 -41 -297t-123 -214t-192 -81q-84 0 -96 127h-4q-50 -68 -87.5 -97.5t-82.5 -29.5q-96 0 -151.5 95.5t-55.5 232.5q0 81 13.5 161.5t41 153.5t65.5 128.5 t92.5 88.5t116.5 33q69 0 105.5 -37.5t64.5 -122.5l31 127h107l-80 -360q-60 -271 -60 -312q0 -55 33 -55q43 0 78.5 41.5t57 108t33 142.5t11.5 151q0 235 -111.5 381.5t-283.5 146.5q-133 0 -234.5 -89t-153.5 -237.5t-52 -333.5q0 -290 120.5 -460t331.5 -170 q197 0 351 213h124q-181 -340 -479 -340q-260 0 -420.5 202t-160.5 545zM475 434q0 -198 92 -198q53 0 99.5 66t71 156t24.5 171q0 57 -9 101t-32.5 74t-58.5 30q-47 0 -84 -39t-59 -100t-33 -128.5t-11 -132.5z" />
<glyph unicode="A" d="M41 0l471 1470h225l451 -1470h-217l-127 428h-465l-133 -428h-205zM432 604h363l-177 647h-4z" />
<glyph unicode="B" d="M172 0v1470h522q157 0 266 -100t109 -270q0 -97 -53.5 -179t-143.5 -128q267 -107 267 -359q0 -101 -38 -185t-102.5 -137.5t-146.5 -82.5t-172 -29h-508zM369 170h301q127 0 198.5 72t71.5 196q0 123 -79 185.5t-224 62.5h-268v-516zM369 848h237q132 0 198 57.5 t66 179.5q0 215 -262 215h-239v-452z" />
<glyph unicode="C" d="M106 743q0 221 63 392t192 272.5t309 101.5q190 0 320.5 -126t160.5 -355h-193q-23 150 -97.5 227.5t-190.5 77.5q-89 0 -158.5 -46.5t-113 -128t-65.5 -185t-22 -223.5q0 -613 365 -613q117 0 195 112t102 292h192q-28 -267 -169 -423.5t-351 -156.5q-108 0 -197 39.5 t-151.5 110t-106 169t-64 215t-20.5 248.5z" />
<glyph unicode="D" d="M172 0v1470h432q129 0 232.5 -56.5t168.5 -154.5t99.5 -226.5t34.5 -276.5q0 -124 -20.5 -235.5t-63.5 -207t-106 -165t-153.5 -109t-199.5 -39.5h-424zM371 170h221q73 0 132 31.5t98 85t65 127.5t37.5 156t11.5 173q0 118 -20.5 216.5t-62 176t-112.5 121t-166 43.5 h-204v-1130z" />
<glyph unicode="E" d="M195 0v1470h886v-176h-688v-450h621v-176h-621v-492h703v-176h-901z" />
<glyph unicode="F" d="M186 0v1470h895v-176h-696v-450h598v-176h-598v-668h-199z" />
<glyph unicode="G" d="M106 748q0 208 64.5 379.5t192 276.5t296.5 105q77 0 151 -33.5t135 -94t102.5 -153.5t50.5 -204h-193q-22 146 -88 227.5t-168 81.5q-83 0 -149 -49t-106.5 -133t-61.5 -189.5t-21 -224.5q0 -606 346 -606q128 0 203.5 124.5t75.5 356.5v4h-274v170h460v-786h-129 l-47 190q-55 -114 -134 -171.5t-167 -57.5q-260 0 -399.5 209t-139.5 578z" />
<glyph unicode="H" d="M176 0v1470h197v-608h481v608h199v-1470h-199v686h-481v-686h-197z" />
<glyph unicode="I" d="M242 0v176h272v1118h-272v176h743v-176h-272v-1118h272v-176h-743z" />
<glyph unicode="J" d="M131 330v143h186v-100q0 -123 57 -182.5t185 -59.5q256 0 256 254v909h-586v176h785v-1073q0 -206 -116 -321t-329 -115q-197 0 -317.5 95.5t-120.5 273.5z" />
<glyph unicode="K" d="M178 0v1470h197v-684l549 684h233l-561 -667l578 -803h-236l-471 649l-92 -110v-539h-197z" />
<glyph unicode="L" d="M203 0v1470h196v-1294h686v-176h-882z" />
<glyph unicode="M" d="M74 0v1470h305l233 -1161h6l232 1161h305v-1470h-192v868q0 187 4 285h-6l-248 -1153h-197l-248 1151h-6q4 -94 4 -283v-868h-192z" />
<glyph unicode="N" d="M174 0v1470h234l448 -1105h4v1105h193v-1470h-222l-462 1106h-4v-1106h-191z" />
<glyph unicode="O" d="M82 735q0 219 61.5 393t183.5 277.5t287 103.5q163 0 285.5 -104t185 -278.5t62.5 -391.5t-63.5 -392t-186 -278.5t-283.5 -103.5q-165 0 -287.5 103.5t-183.5 277.5t-61 393zM287 735q0 -165 36 -298t111.5 -216.5t179.5 -83.5q100 0 176 82t114 216.5t38 299.5 q0 162 -37 296t-113 218t-178 84q-104 0 -179.5 -84.5t-111.5 -218t-36 -295.5z" />
<glyph unicode="P" d="M188 0v1470h519q191 0 313.5 -113t122.5 -300q0 -196 -119 -316t-317 -120h-320v-621h-199zM387 791h252q299 0 299 264q0 245 -291 245h-260v-509z" />
<glyph unicode="Q" d="M82 735q0 219 61.5 393t183.5 277.5t287 103.5q163 0 285.5 -104t185 -278.5t62.5 -391.5q0 -171 -41.5 -319t-118.5 -254l168 -158l-111 -119l-172 160q-117 -84 -258 -84q-165 0 -287.5 103.5t-183.5 277.5t-61 393zM287 735q0 -165 36 -298t111.5 -216.5t179.5 -83.5 q65 0 121 35l-139 131l111 123l139 -131q96 172 96 440q0 162 -37 296t-113 218t-178 84q-104 0 -179.5 -84.5t-111.5 -218t-36 -295.5z" />
<glyph unicode="R" d="M166 0v1470h496q215 0 327.5 -101.5t112.5 -293.5q0 -126 -50 -211t-153 -141q97 -41 134 -100.5t42 -176.5l12 -274q3 -63 16 -90t60 -49v-33h-245q-35 99 -35 369q0 43 -3.5 75.5t-17 69.5t-36.5 61t-65 40t-99 16h-297v-631h-199zM365 801h276q258 0 258 254 q0 245 -225 245h-309v-499z" />
<glyph unicode="S" d="M92 475h187q0 -171 95 -257.5t249 -86.5t238.5 64t84.5 184q0 108 -58 164.5t-177 91.5l-256 74q-159 46 -236.5 131t-77.5 215q0 213 124.5 333.5t320.5 120.5q245 0 373.5 -114t138.5 -355h-187q-6 144 -91 221.5t-212 77.5q-132 0 -203 -67t-71 -191q0 -68 39.5 -111 t134.5 -75l297 -96q334 -108 334 -393q0 -94 -28 -169.5t-76 -126.5t-114.5 -85t-140 -49t-155.5 -15q-115 0 -210 29.5t-169 89.5q-76 62 -116 162q-39 96 -38 221v12z" />
<glyph unicode="T" d="M78 1294v176h1071v-176h-438v-1294h-199v1294h-434z" />
<glyph unicode="U" d="M137 489v981h197v-925q0 -191 68.5 -299.5t201.5 -108.5q134 0 209.5 104.5t75.5 299.5v929h201v-954q0 -257 -135 -406t-355 -149q-212 0 -337.5 139t-125.5 389z" />
<glyph unicode="V" d="M55 1470h221l338 -1212h4l334 1212h224l-457 -1470h-209z" />
<glyph unicode="W" d="M8 1470h221l103 -1169h4l153 1169h271l149 -1169h4l107 1169h203l-185 -1470h-247l-173 1198h-4l-176 -1198h-248z" />
<glyph unicode="X" d="M53 0l445 754l-412 716h250l291 -563l291 563h237l-412 -716l435 -754h-246l-314 604l-325 -604h-240z" />
<glyph unicode="Y" d="M43 1470h231l340 -706l340 706h234l-473 -878v-592h-199v592z" />
<glyph unicode="Z" d="M106 0v166l738 1128h-670v176h926v-172l-742 -1122h742v-176h-994z" />
<glyph unicode="[" d="M422 -401v1880h383v-146h-221v-1589h221v-145h-383z" />
<glyph unicode="\" d="M295 1509h135l504 -1548h-137z" />
<glyph unicode="]" d="M422 -256h221v1589h-221v146h383v-1880h-383v145z" />
<glyph unicode="^" d="M104 551l437 858h147l434 -858h-157l-351 694l-350 -694h-160z" />
<glyph unicode="_" d="M0 -152h1229v-100h-1229v100z" />
<glyph unicode="`" d="M352 1503h213l148 -289h-138z" />
<glyph unicode="a" d="M150 279q0 142 80 228t233 105l317 39q86 9 86 127q0 174 -252 174q-114 0 -173.5 -50t-71.5 -157h-168q12 357 442 357q76 0 145 -17t127 -51.5t92.5 -94t34.5 -136.5v-617q0 -63 58 -63q9 0 59 8v-131q-55 -20 -102 -20q-92 0 -137 39t-48 124q-152 -174 -387 -174 q-146 0 -240.5 84t-94.5 226zM334 305q0 -186 196 -186q74 0 148.5 29t128 88.5t53.5 134.5v176q-19 -19 -80 -35q-92 -19 -217 -33q-229 -29 -229 -174z" />
<glyph unicode="b" d="M184 0v1470h181v-534h4q114 166 309 166q107 0 193.5 -44t140.5 -118.5t83 -170t29 -202.5q0 -95 -17 -181.5t-53.5 -163t-90.5 -132.5t-133.5 -88.5t-176.5 -32.5q-196 0 -295 164h-4v-133h-170zM356 512q0 -176 71.5 -281.5t221.5 -105.5q77 0 135 35t90.5 95.5 t48 131.5t15.5 152q0 195 -64 293t-229 108q-142 -1 -215.5 -110.5t-73.5 -317.5z" />
<glyph unicode="c" d="M135 506q0 127 33.5 234.5t98 188.5t168 127t235.5 46q183 0 296.5 -107t125.5 -284h-174q-49 229 -275 229q-83 0 -146 -33.5t-98.5 -91.5t-53 -128t-17.5 -150q0 -412 313 -412q105 0 181 74t96 180h174q-31 -197 -149.5 -303.5t-305.5 -106.5q-155 0 -270.5 72 t-173.5 192.5t-58 272.5z" />
<glyph unicode="d" d="M139 567q0 108 28.5 204t83 170.5t141 117.5t194.5 43q199 0 319 -182h4v550h181v-1470h-170v147h-5q-102 -178 -309 -178q-95 0 -174 33t-132.5 90t-90.5 134t-53.5 162.5t-16.5 178.5zM326 539q0 -82 15 -152.5t47 -131t90 -95.5t136 -35q96 0 163.5 49.5t98.5 129.5 t31 181q0 455 -289 455q-68 0 -119.5 -20t-83.5 -54t-52 -86t-28 -109.5t-9 -131.5z" />
<glyph unicode="e" d="M125 506q0 130 32.5 237.5t97 188.5t167.5 125.5t237 44.5q103 0 185.5 -33.5t137.5 -91t91 -138t52 -170.5t16 -192h-824q0 -169 84 -260.5t248 -91.5q102 0 193.5 61t103.5 150h180q-35 -169 -168.5 -269t-322.5 -100q-121 0 -218.5 41t-161 113.5t-97 170.5t-33.5 214 zM317 621h637q-15 159 -91.5 239t-227.5 80q-139 0 -227.5 -92.5t-90.5 -226.5z" />
<glyph unicode="f" d="M156 922v149h352v103q0 159 102.5 238t298.5 79q144 0 205 -4v-162q-110 4 -196 4q-128 0 -179 -48t-51 -159v-51h426v-149h-426v-922h-180v922h-352z" />
<glyph unicode="g" d="M143 567q0 108 28.5 203.5t83 170t141 118t194.5 43.5q202 0 319 -182h4v151h170v-1010q0 -512 -497 -512q-180 0 -287.5 83.5t-122.5 236.5h180q14 -81 74.5 -125.5t167.5 -44.5q154 0 229.5 82t75.5 262v76h-4q-102 -150 -285 -150q-97 0 -177 32.5t-133.5 88.5 t-90.5 133t-53.5 163t-16.5 181zM330 539q0 -81 15 -151.5t47 -131.5t90 -96t136 -35q144 0 218.5 101.5t74.5 258.5q0 455 -288 455q-148 0 -220.5 -98t-72.5 -303z" />
<glyph unicode="h" d="M178 0v1470h180v-542h4q122 174 314 174q180 0 277.5 -93.5t97.5 -279.5v-729h-181v700q0 129 -49.5 184.5t-163.5 55.5q-142 0 -220.5 -91t-78.5 -265v-584h-180z" />
<glyph unicode="i" d="M115 0v150h409v772h-327v149h508v-921h409v-150h-999zM524 1266v204h181v-204h-181z" />
<glyph unicode="j" d="M315 -268h129q131 0 168 24t37 107v1059h-327v149h507v-1229q0 -142 -88 -207t-268 -65q-85 0 -158 6v156zM649 1266v204h180v-204h-180z" />
<glyph unicode="k" d="M211 0v1470h174v-852l461 453h229l-409 -399l434 -672h-232l-333 541l-150 -135v-406h-174z" />
<glyph unicode="l" d="M135 0v150h410v1171h-328v149h508v-1320h410v-150h-1000z" />
<glyph unicode="m" d="M57 0v1071h170v-151h4q86 182 242 182q142 0 203 -174q64 98 113 136t133 38q114 0 181.5 -99.5t67.5 -261.5v-741h-180v692q0 248 -117 248q-73 0 -121 -87.5t-48 -199.5v-653h-181v741q0 93 -22.5 146t-63.5 53q-68 0 -114.5 -51t-66 -128.5t-19.5 -176.5v-584h-181z " />
<glyph unicode="n" d="M178 0v1071h170v-151h4q126 182 324 182q182 0 278.5 -96t96.5 -277v-729h-181v659q0 144 -49.5 212.5t-179.5 68.5q-93 0 -158.5 -50t-95 -129t-29.5 -177v-584h-180z" />
<glyph unicode="o" d="M137 537q0 114 33.5 215.5t95 179.5t156.5 124t211 46t211.5 -46t157 -124t95 -179.5t33.5 -215.5q0 -91 -20.5 -174.5t-62 -155.5t-100 -125t-139.5 -83t-175 -30q-115 0 -210 46t-157 124t-95.5 180.5t-33.5 217.5zM322 537q0 -63 10.5 -121.5t35 -111.5t59.5 -92 t88 -62t118 -23q64 0 117 23.5t89 63.5t60.5 93t35.5 111t11 119q0 78 -18.5 149t-54.5 129.5t-98 93.5t-142 35q-78 0 -139.5 -34t-98 -92t-55 -129.5t-18.5 -151.5z" />
<glyph unicode="p" d="M184 -424v1495h170v-151h4q114 182 320 182q87 0 160.5 -28.5t125.5 -78.5t88.5 -117.5t54 -146t17.5 -164.5q0 -95 -17 -181t-53.5 -163t-90.5 -133t-133.5 -88.5t-176.5 -32.5q-185 0 -284 144h-4v-537h-181zM356 485q0 -155 76 -257.5t217 -102.5q79 0 137 35.5 t90 96.5t47 131t15 151q0 207 -72 304t-221 97q-289 0 -289 -455z" />
<glyph unicode="q" d="M143 567q0 107 29 202.5t83.5 170t141 118.5t193.5 44q202 0 319 -182h4v151h170v-1495h-180v537h-4q-105 -144 -285 -144q-97 0 -176.5 32.5t-133.5 88.5t-90.5 133t-53.5 163t-17 181zM330 539q0 -81 15 -151.5t47 -131t90 -96t136 -35.5q137 0 215 102.5t78 257.5 q0 455 -288 455q-84 0 -142.5 -29t-91 -85t-46 -125.5t-13.5 -161.5z" />
<glyph unicode="r" d="M311 0v1071h170v-178h4q153 209 404 209q73 0 149 -6v-187h-149q-173 0 -285 -105.5t-112 -262.5v-541h-181z" />
<glyph unicode="s" d="M172 344h174q9 -219 283 -219q114 0 179.5 39.5t65.5 109.5q0 32 -5 54.5t-21.5 40.5t-35.5 30t-58 25t-77.5 22.5t-106.5 25.5q-74 17 -117 28q-127 32 -187.5 100.5t-60.5 179.5q0 104 57 178.5t147.5 109t202.5 34.5q177 0 286.5 -86.5t121.5 -249.5h-174 q-4 95 -67.5 137.5t-186.5 42.5q-84 0 -148.5 -33t-64.5 -98q0 -32 9.5 -57t31 -43t44 -30.5t60.5 -23.5t68 -18t79.5 -17.5t82.5 -19.5q73 -20 122.5 -41t93 -55t64.5 -85.5t21 -121.5q0 -107 -59.5 -184.5t-153.5 -113.5t-211 -36q-453 0 -459 375z" />
<glyph unicode="t" d="M139 922v149h350v299h181v-299h417v-149h-417v-615q0 -86 50.5 -126t174.5 -40h192v-141q-154 -14 -258 -14q-179 0 -259.5 73t-80.5 238v625h-350z" />
<glyph unicode="u" d="M182 301v770h180v-711q0 -117 53 -176t154 -59q144 0 219.5 101.5t75.5 254.5v590h180v-1071h-170v156l-4 4q-102 -191 -340 -191q-156 0 -252 87.5t-96 244.5z" />
<glyph unicode="v" d="M98 1071h209l299 -872h4l324 872h196l-428 -1071h-192z" />
<glyph unicode="w" d="M27 1071h194l144 -801h4l125 801h243l127 -801h4l156 801h178l-227 -1071h-209l-156 788h-4l-147 -788h-205z" />
<glyph unicode="x" d="M123 0l375 551l-357 520h230l247 -377l250 377h219l-360 -520l377 -551h-232l-264 403l-258 -403h-227z" />
<glyph unicode="y" d="M84 1071h203l327 -872h4l328 872h197l-424 -1051q-42 -114 -91 -221t-79 -149q-64 -88 -205 -88q-71 0 -121 16v164q53 -18 113 -18q62 0 96 43q38 57 90 202z" />
<glyph unicode="z" d="M184 0v141l607 781h-555v149h786v-147l-598 -774h618v-150h-858z" />
<glyph unicode="{" d="M358 479v123q43 4 76 28t52 62t28.5 81t9.5 89v352q0 67 23.5 126t72.5 99t113 40h137v-133h-90q-94 0 -94 -168v-338q0 -98 -47 -183t-133 -114v-4q87 -31 133.5 -112.5t46.5 -190.5v-336q0 -168 94 -168h90v-133h-137q-97 0 -153 79t-56 185v350q0 66 -15 121.5t-54 97 t-97 47.5z" />
<glyph unicode="|" d="M539 -39v1548h149v-1548h-149z" />
<glyph unicode="}" d="M358 -268h91q94 0 94 168v336q0 109 46.5 190.5t133.5 112.5v4q-86 29 -133 114t-47 183v338q0 168 -94 168h-91v133h138q64 0 113 -40t72.5 -99t23.5 -126v-352q0 -63 15.5 -117.5t54.5 -96t95 -46.5v-123q-44 -4 -77 -28.5t-51.5 -63t-27.5 -82t-9 -92.5v-350 q0 -104 -56.5 -184t-152.5 -80h-138v133z" />
<glyph unicode="~" d="M68 473q102 184 292 184q100 0 252 -67q17 -8 55.5 -26t53.5 -23.5t43.5 -15t54.5 -12.5t58 -3q122 0 200 152l82 -117q-99 -185 -293 -185q-104 0 -252 68q-17 8 -55.5 26t-53.5 24t-43.5 16t-53.5 13t-56 3q-129 0 -200 -154z" />
<glyph unicode="&#xa0;" />
<glyph unicode="&#xa1;" d="M516 86l49 635h101l47 -635v-485h-197v485zM516 862v209h197v-209h-197z" />
<glyph unicode="&#xa2;" d="M135 506q0 127 33.5 234.5t98 188.5t168 127t235.5 46q21 0 57 -4l45 178h78l-49 -193q127 -35 203.5 -133t87.5 -239h-174q-37 163 -158 209l-197 -789q35 -6 78 -6q105 0 181 74t96 180h174q-31 -197 -149.5 -303.5t-305.5 -106.5q-49 0 -113 11l-51 -211h-84l60 231 q-150 55 -232 190.5t-82 315.5zM328 537q0 -292 159 -379l199 780q-7 0 -21.5 1t-21.5 1q-83 0 -146 -33.5t-98.5 -91.5t-53 -128t-17.5 -150z" />
<glyph unicode="&#xa3;" d="M96 649v129h142q-88 158 -88 275q0 135 70 231t182 141t253 45q196 0 318.5 -121.5t122.5 -314.5v-30h-181v18q0 128 -77 210.5t-203 82.5q-118 0 -205.5 -71t-87.5 -181q0 -117 104 -285h342v-129h-282q18 -65 18 -135q0 -200 -243 -379v-2q134 76 268 76 q68 0 186.5 -36t157.5 -36q80 0 156 64l84 -135q-123 -99 -254 -99q-65 0 -210.5 46t-224.5 46q-114 0 -239 -82l-101 142q250 174 250 383q0 68 -39 147h-219z" />
<glyph unicode="&#xa4;" d="M102 1137l99 98l116 -115q126 105 297 105q168 0 297 -105l117 115l98 -98l-112 -111q102 -135 102 -307q0 -168 -102 -309l110 -115l-92 -92l-112 119q-137 -113 -306 -113q-168 0 -305 113l-112 -119l-93 92l111 115q-102 141 -102 309q0 172 102 307zM262 719 q0 -144 104.5 -255.5t247.5 -111.5q95 0 177 52.5t129 137t47 177.5q0 144 -105 253t-248 109q-139 0 -245.5 -109.5t-106.5 -252.5z" />
<glyph unicode="&#xa5;" d="M51 1430h205l358 -625l359 625h205l-396 -644h318v-116h-395v-174h395v-117h-395v-379h-181v379h-393v117h393v174h-393v116h315z" />
<glyph unicode="&#xa6;" d="M539 -39v602h149v-602h-149zM539 942v567h149v-567h-149z" />
<glyph unicode="&#xa7;" d="M133 633q0 221 205 323q-96 93 -96 205q0 154 103.5 251t264.5 97q182 0 279.5 -97.5t97.5 -276.5h-174q0 104 -49.5 161.5t-153.5 57.5q-80 0 -134 -43.5t-54 -122.5q0 -55 37 -97t112 -87l299 -177q84 -50 129.5 -92t70 -99t24.5 -136q0 -205 -211 -328 q106 -100 106 -233q0 -142 -112.5 -236t-258.5 -94q-192 0 -297.5 100.5t-105.5 284.5h180q0 -114 53 -172t150 -58q98 0 154.5 44.5t56.5 125.5q0 51 -27 86.5t-86 75.5l-430 287q-67 45 -100 111t-33 139zM303 678q0 -112 92 -174l387 -250q142 80 142 207q0 116 -127 196 l-357 220q-137 -70 -137 -199z" />
<glyph unicode="&#xa8;" d="M356 1262v208h185v-208h-185zM688 1262v208h184v-208h-184z" />
<glyph unicode="&#xa9;" d="M0 737q0 381 160.5 576.5t455.5 195.5q286 0 449.5 -197t163.5 -575q0 -373 -163.5 -574.5t-449.5 -201.5q-294 0 -455 197.5t-161 578.5zM156 737q0 -331 121 -489t339 -158q209 0 333 159.5t124 487.5q0 168 -34 293.5t-96 201t-143.5 112t-183.5 36.5 q-104 0 -186.5 -36.5t-144.5 -112t-95.5 -201t-33.5 -293.5zM289 739q0 134 42 241t121.5 169.5t182.5 62.5q108 0 186.5 -85.5t98.5 -235.5h-138q-12 83 -52 134.5t-93 51.5q-93 0 -143 -94t-50 -242q0 -93 22.5 -170t69 -125.5t107.5 -48.5q53 0 91 52t48 143h140 q-22 -144 -99 -237t-180 -93q-104 0 -185.5 63t-125 171t-43.5 243z" />
<glyph unicode="&#xaa;" d="M285 1016q0 89 58 143t171 66l180 20q49 6 49 78q0 35 -39 57.5t-116 22.5q-149 0 -158 -109h-111q6 215 289 215q65 0 121 -16.5t97.5 -58.5t41.5 -105v-368q0 -35 37 -35q11 0 39 4v-90q-42 -11 -65 -11q-123 0 -123 105q-102 -105 -252 -105q-92 0 -155.5 50 t-63.5 137zM307 623v98h606v-98h-606zM414 1034q0 -98 118 -98q48 0 94.5 15.5t81.5 51t35 84.5v80q-24 -22 -188 -41q-87 -12 -115 -34q-26 -23 -26 -58z" />
<glyph unicode="&#xab;" d="M223 473v189l322 251v-180l-215 -166l215 -166v-180zM684 473v189l322 251v-180l-215 -166l215 -166v-180z" />
<glyph unicode="&#xac;" d="M96 442v150h1037v-592h-150v442h-887z" />
<glyph unicode="&#xad;" d="M362 475v184h502v-184h-502z" />
<glyph unicode="&#xae;" d="M0 737q0 381 160.5 576.5t455.5 195.5q286 0 449.5 -197t163.5 -575q0 -373 -163.5 -574.5t-449.5 -201.5q-294 0 -455 197.5t-161 578.5zM156 737q0 -331 121 -489t339 -158q209 0 333 159.5t124 487.5q0 168 -34 293.5t-96 201t-143.5 112t-183.5 36.5 q-104 0 -186.5 -36.5t-144.5 -112t-95.5 -201t-33.5 -293.5zM369 289v893h245q287 0 287 -254q0 -211 -205 -246l228 -393h-152l-215 387h-53v-387h-135zM504 791h84q88 0 130 33t42 112q0 131 -174 131h-82v-276z" />
<glyph unicode="&#xaf;" d="M293 1274v117h643v-117h-643z" />
<glyph unicode="&#xb0;" d="M315 1141q0 128 86 213.5t213 85.5q129 0 214 -85t85 -214q0 -127 -85.5 -213t-213.5 -86q-126 0 -212.5 86.5t-86.5 212.5zM414 1141q0 -82 60.5 -146.5t139.5 -64.5t140 64.5t61 146.5t-61 146.5t-140 64.5t-139.5 -64.5t-60.5 -146.5z" />
<glyph unicode="&#xb1;" d="M96 0v150h1037v-150h-1037zM96 557v150h445v329h149v-329h443v-150h-443v-330h-149v330h-445z" />
<glyph unicode="&#xb2;" d="M287 874q12 233 200 340l193 109q66 39 91.5 77t25.5 93q0 63 -44 100t-128 37q-90 0 -137.5 -49t-49.5 -141h-121q0 150 84.5 229.5t239.5 79.5q124 0 211.5 -71.5t87.5 -190.5q0 -54 -13 -93.5t-45.5 -73t-65 -56t-93.5 -58.5l-121 -61q-113 -60 -162 -146h500v-125 h-653z" />
<glyph unicode="&#xb3;" d="M287 1139h137q3 -168 178 -168q91 0 144 37t53 110q0 76 -45.5 114t-149.5 38h-63v102h53q168 0 168 139q0 54 -41 85.5t-121 31.5q-81 0 -122.5 -42.5t-43.5 -121.5h-125q0 138 80.5 211.5t228.5 73.5q121 0 205 -60t84 -171q0 -132 -121 -181v-4q156 -44 156 -200 q0 -136 -97.5 -208.5t-244.5 -72.5q-143 0 -226.5 72t-86.5 215z" />
<glyph unicode="&#xb4;" d="M516 1214l146 289h215l-226 -289h-135z" />
<glyph unicode="&#xb5;" d="M111 -424v1495h180v-647q0 -136 69 -212.5t189 -76.5q124 0 189 75t65 212v649h180v-815q0 -69 19 -93t61 -24q37 0 55 4v-149q-61 -14 -110 -14q-166 0 -193 145q-108 -156 -276 -156q-74 0 -145 37.5t-99 99.5l-4 -2v-528h-180z" />
<glyph unicode="&#xb6;" d="M123 1081q0 188 117.5 288.5t355.5 100.5h446v-1824h-149v1702h-182v-1702h-150v1059h-12q-114 0 -210 44t-156 131t-60 201z" />
<glyph unicode="&#xb7;" d="M508 451v217h213v-217h-213z" />
<glyph unicode="&#xb8;" d="M395 -416l35 82q88 -31 133 -31q53 0 85 22t32 64q0 35 -30 57.5t-70 22.5q-22 0 -78 -16l-35 39l131 176h94l-94 -127q50 8 64 8q80 0 126 -42t46 -111q0 -90 -69.5 -139.5t-170.5 -49.5q-97 0 -199 45z" />
<glyph unicode="&#xb9;" d="M358 874v125h232v488h-221v96q131 3 178 37q57 37 74 125h116v-746h203v-125h-582z" />
<glyph unicode="&#xba;" d="M291 1169q0 164 84.5 252t238.5 88q152 0 238 -88.5t86 -251.5q0 -164 -85.5 -252t-238.5 -88q-155 0 -239 87.5t-84 252.5zM311 623v98h607v-98h-607zM428 1169q0 -108 48 -170.5t138 -62.5q91 0 139 61.5t48 171.5q0 101 -46.5 167.5t-140.5 66.5q-90 0 -138 -63.5 t-48 -170.5z" />
<glyph unicode="&#xbb;" d="M223 221v180l215 166l-215 166v180l322 -251v-189zM684 221v180l215 166l-215 166v180l322 -251v-189z" />
<glyph unicode="&#xbc;" d="M37 709v106h174v395h-170v95q94 3 139 26q38 20 60 109h94v-625h160v-106h-457zM92 -41l924 1493h119l-924 -1493h-119zM670 172v104l340 455h98v-459h106v-100h-106v-172h-117v172h-321zM788 272h203v269z" />
<glyph unicode="&#xbd;" d="M37 709v106h174v395h-170v95q94 3 139 26q38 20 60 109h94v-625h160v-106h-457zM92 -41l924 1493h119l-924 -1493h-119zM698 0q4 112 44.5 179.5t134.5 121.5l133 76q53 31 73.5 57t20.5 78t-38.5 84.5t-94.5 32.5q-69 0 -103 -49t-34 -127h-117q-1 133 68 205.5 t198 72.5q105 0 174.5 -61t69.5 -162q0 -140 -154 -219l-127 -68q-97 -54 -117 -115h398v-106h-529z" />
<glyph unicode="&#xbe;" d="M-2 948h119q3 -155 145 -155q64 0 107 34t43 91q0 116 -160 116h-53v103q31 -4 59 -4q60 0 94.5 26.5t34.5 77.5q0 46 -36 73t-89 27q-65 0 -97 -41t-34 -112h-115q0 125 63.5 190.5t186.5 65.5q102 0 171 -52t69 -145q0 -104 -76 -147q105 -45 105 -168 q0 -114 -77.5 -177t-201.5 -63q-243 0 -258 260zM92 -41l924 1493h119l-924 -1493h-119zM670 172v104l340 455h98v-459h106v-100h-106v-172h-117v172h-321zM788 272h203v269z" />
<glyph unicode="&#xbf;" d="M166 -8q0 72 24 129t53 90t102 104l4.5 4.5l4 4l4.5 4.5q132 129 154 186q25 64 25 188h180q0 -138 -31 -223q-26 -79 -164 -217q-14 -14 -44 -42.5t-39 -38t-28 -31.5t-24.5 -35t-14.5 -35.5t-11.5 -47t-2.5 -55.5q0 -105 69.5 -169t178.5 -64q273 0 273 324h180 q9 -222 -119.5 -351t-339.5 -129q-187 0 -310.5 111t-123.5 293zM522 866v209h199v-209h-199z" />
<glyph unicode="&#xc0;" d="M41 0l471 1470h225l451 -1470h-217l-127 428h-465l-133 -428h-205zM352 1892h213l148 -288h-138zM432 604h363l-177 647h-4z" />
<glyph unicode="&#xc1;" d="M41 0l471 1470h225l451 -1470h-217l-127 428h-465l-133 -428h-205zM432 604h363l-177 647h-4zM516 1604l146 288h215l-226 -288h-135z" />
<glyph unicode="&#xc2;" d="M41 0l471 1470h225l451 -1470h-217l-127 428h-465l-133 -428h-205zM315 1604l203 288h191l202 -288h-163l-136 190l-135 -190h-162zM432 604h363l-177 647h-4z" />
<glyph unicode="&#xc3;" d="M41 0l471 1470h225l451 -1470h-217l-127 428h-465l-133 -428h-205zM264 1630q15 108 69.5 163.5t143.5 55.5q61 0 150.5 -37.5t134.5 -37.5q85 0 100 94h101q-12 -104 -67.5 -163.5t-137.5 -59.5q-57 0 -164 37.5t-135 37.5q-76 0 -97 -90h-98zM432 604h363l-177 647h-4z " />
<glyph unicode="&#xc4;" d="M41 0l471 1470h225l451 -1470h-217l-127 428h-465l-133 -428h-205zM356 1651v209h185v-209h-185zM432 604h363l-177 647h-4zM688 1651v209h184v-209h-184z" />
<glyph unicode="&#xc5;" d="M41 0l471 1470h225l451 -1470h-217l-127 428h-465l-133 -428h-205zM426 1749q0 78 53 133t135 55t135.5 -54t53.5 -134t-53.5 -134t-135.5 -54q-83 0 -135.5 53t-52.5 135zM432 604h363l-177 647h-4zM508 1749q0 -44 31 -75.5t75 -31.5q43 0 75 31.5t32 75.5t-32 75 t-75 31q-44 0 -75 -31t-31 -75z" />
<glyph unicode="&#xc6;" d="M-66 0l435 1470h807v-176h-449v-450h381v-176h-381v-492h465v-176h-664v428h-266l-112 -428h-216zM309 604h219v690h-36z" />
<glyph unicode="&#xc7;" d="M106 743q0 221 63 392t192 272.5t309 101.5q190 0 320.5 -126t160.5 -355h-193q-23 150 -97.5 227.5t-190.5 77.5q-89 0 -158.5 -46.5t-113 -128t-65.5 -185t-22 -223.5q0 -613 365 -613q117 0 195 112t102 292h192q-26 -248 -148.5 -400.5t-309.5 -175.5l-68 -92 q50 8 63 8q80 0 126 -42t46 -111q0 -90 -69.5 -139.5t-169.5 -49.5q-97 0 -199 45l35 82q88 -31 133 -31q53 0 85 22t32 64q0 35 -30 57.5t-70 22.5q-22 0 -78 -16l-35 39l102 139q-125 8 -222.5 71.5t-158.5 169t-92 242t-31 297.5z" />
<glyph unicode="&#xc8;" d="M195 0v1470h886v-176h-688v-450h621v-176h-621v-492h703v-176h-901zM373 1892h213l147 -288h-137z" />
<glyph unicode="&#xc9;" d="M195 0v1470h886v-176h-688v-450h621v-176h-621v-492h703v-176h-901zM537 1604l145 288h215l-225 -288h-135z" />
<glyph unicode="&#xca;" d="M195 0v1470h886v-176h-688v-450h621v-176h-621v-492h703v-176h-901zM336 1604l203 288h190l203 -288h-164l-135 190l-135 -190h-162z" />
<glyph unicode="&#xcb;" d="M195 0v1470h886v-176h-688v-450h621v-176h-621v-492h703v-176h-901zM377 1651v209h184v-209h-184zM709 1651v209h184v-209h-184z" />
<glyph unicode="&#xcc;" d="M242 0v176h272v1118h-272v176h743v-176h-272v-1118h272v-176h-743zM352 1892h213l148 -288h-138z" />
<glyph unicode="&#xcd;" d="M242 0v176h272v1118h-272v176h743v-176h-272v-1118h272v-176h-743zM516 1604l146 288h215l-226 -288h-135z" />
<glyph unicode="&#xce;" d="M242 0v176h272v1118h-272v176h743v-176h-272v-1118h272v-176h-743zM315 1604l203 288h191l202 -288h-163l-136 190l-135 -190h-162z" />
<glyph unicode="&#xcf;" d="M242 0v176h272v1118h-272v176h743v-176h-272v-1118h272v-176h-743zM356 1651v209h185v-209h-185zM688 1651v209h184v-209h-184z" />
<glyph unicode="&#xd0;" d="M8 674v166h164v630h432q129 0 232.5 -56.5t168.5 -154.5t99.5 -226.5t34.5 -276.5q0 -124 -20.5 -235.5t-63.5 -207t-106 -165t-153.5 -109t-199.5 -39.5h-424v674h-164zM371 170h221q73 0 132 31.5t98 85t65 127.5t37.5 156t11.5 173q0 118 -20.5 216.5t-62 176 t-112.5 121t-166 43.5h-204v-460h262v-166h-262v-504z" />
<glyph unicode="&#xd1;" d="M174 0v1470h234l448 -1105h4v1105h193v-1470h-222l-462 1106h-4v-1106h-191zM264 1630q15 108 69.5 163.5t143.5 55.5q61 0 150.5 -37.5t134.5 -37.5q85 0 100 94h101q-12 -104 -67.5 -163.5t-137.5 -59.5q-57 0 -164 37.5t-135 37.5q-76 0 -97 -90h-98z" />
<glyph unicode="&#xd2;" d="M82 735q0 219 61.5 393t183.5 277.5t287 103.5q163 0 285.5 -104t185 -278.5t62.5 -391.5t-63.5 -392t-186 -278.5t-283.5 -103.5q-165 0 -287.5 103.5t-183.5 277.5t-61 393zM287 735q0 -165 36 -298t111.5 -216.5t179.5 -83.5q100 0 176 82t114 216.5t38 299.5 q0 162 -37 296t-113 218t-178 84q-104 0 -179.5 -84.5t-111.5 -218t-36 -295.5zM352 1892h213l148 -288h-138z" />
<glyph unicode="&#xd3;" d="M82 735q0 219 61.5 393t183.5 277.5t287 103.5q163 0 285.5 -104t185 -278.5t62.5 -391.5t-63.5 -392t-186 -278.5t-283.5 -103.5q-165 0 -287.5 103.5t-183.5 277.5t-61 393zM287 735q0 -165 36 -298t111.5 -216.5t179.5 -83.5q100 0 176 82t114 216.5t38 299.5 q0 162 -37 296t-113 218t-178 84q-104 0 -179.5 -84.5t-111.5 -218t-36 -295.5zM516 1604l146 288h215l-226 -288h-135z" />
<glyph unicode="&#xd4;" d="M82 735q0 219 61.5 393t183.5 277.5t287 103.5q163 0 285.5 -104t185 -278.5t62.5 -391.5t-63.5 -392t-186 -278.5t-283.5 -103.5q-165 0 -287.5 103.5t-183.5 277.5t-61 393zM287 735q0 -165 36 -298t111.5 -216.5t179.5 -83.5q100 0 176 82t114 216.5t38 299.5 q0 162 -37 296t-113 218t-178 84q-104 0 -179.5 -84.5t-111.5 -218t-36 -295.5zM315 1604l203 288h191l202 -288h-163l-136 190l-135 -190h-162z" />
<glyph unicode="&#xd5;" d="M82 735q0 219 61.5 393t183.5 277.5t287 103.5q163 0 285.5 -104t185 -278.5t62.5 -391.5t-63.5 -392t-186 -278.5t-283.5 -103.5q-165 0 -287.5 103.5t-183.5 277.5t-61 393zM264 1630q15 108 69.5 163.5t143.5 55.5q61 0 150.5 -37.5t134.5 -37.5q85 0 100 94h101 q-12 -104 -67.5 -163.5t-137.5 -59.5q-57 0 -164 37.5t-135 37.5q-76 0 -97 -90h-98zM287 735q0 -165 36 -298t111.5 -216.5t179.5 -83.5q100 0 176 82t114 216.5t38 299.5q0 162 -37 296t-113 218t-178 84q-104 0 -179.5 -84.5t-111.5 -218t-36 -295.5z" />
<glyph unicode="&#xd6;" d="M82 735q0 219 61.5 393t183.5 277.5t287 103.5q163 0 285.5 -104t185 -278.5t62.5 -391.5t-63.5 -392t-186 -278.5t-283.5 -103.5q-165 0 -287.5 103.5t-183.5 277.5t-61 393zM287 735q0 -165 36 -298t111.5 -216.5t179.5 -83.5q100 0 176 82t114 216.5t38 299.5 q0 162 -37 296t-113 218t-178 84q-104 0 -179.5 -84.5t-111.5 -218t-36 -295.5zM356 1651v209h185v-209h-185zM688 1651v209h184v-209h-184z" />
<glyph unicode="&#xd7;" d="M96 104l414 414l-414 414l107 104l411 -411l414 411l105 -104l-412 -414l412 -414l-105 -104l-414 412l-413 -412z" />
<glyph unicode="&#xd8;" d="M66 18l135 199q-119 206 -119 518q0 219 61.5 393t183.5 277.5t287 103.5q213 0 353 -174l118 174l84 -61l-139 -205q117 -208 117 -508q0 -217 -63.5 -392t-186 -278.5t-283.5 -103.5q-211 0 -350 164l-112 -164zM287 735q0 -188 45 -327l518 757q-91 168 -236 168 q-104 0 -179.5 -84.5t-111.5 -218t-36 -295.5zM381 295q41 -74 100.5 -116t132.5 -42q100 0 176 82t114 216.5t38 299.5q0 173 -45 316z" />
<glyph unicode="&#xd9;" d="M137 489v981h197v-925q0 -191 68.5 -299.5t201.5 -108.5q134 0 209.5 104.5t75.5 299.5v929h201v-954q0 -257 -135 -406t-355 -149q-212 0 -337.5 139t-125.5 389zM352 1892h213l148 -288h-138z" />
<glyph unicode="&#xda;" d="M137 489v981h197v-925q0 -191 68.5 -299.5t201.5 -108.5q134 0 209.5 104.5t75.5 299.5v929h201v-954q0 -257 -135 -406t-355 -149q-212 0 -337.5 139t-125.5 389zM516 1604l146 288h215l-226 -288h-135z" />
<glyph unicode="&#xdb;" d="M137 489v981h197v-925q0 -191 68.5 -299.5t201.5 -108.5q134 0 209.5 104.5t75.5 299.5v929h201v-954q0 -257 -135 -406t-355 -149q-212 0 -337.5 139t-125.5 389zM315 1604l203 288h191l202 -288h-163l-136 190l-135 -190h-162z" />
<glyph unicode="&#xdc;" d="M137 489v981h197v-925q0 -191 68.5 -299.5t201.5 -108.5q134 0 209.5 104.5t75.5 299.5v929h201v-954q0 -257 -135 -406t-355 -149q-212 0 -337.5 139t-125.5 389zM356 1651v209h185v-209h-185zM688 1651v209h184v-209h-184z" />
<glyph unicode="&#xdd;" d="M43 1470h231l340 -706l340 706h234l-473 -878v-592h-199v592zM516 1604l146 288h215l-226 -288h-135z" />
<glyph unicode="&#xde;" d="M188 0v1470h199v-243h320q191 0 313.5 -113t122.5 -301q0 -196 -119 -316t-317 -120h-320v-377h-199zM387 547h252q299 0 299 264q0 246 -291 246h-260v-510z" />
<glyph unicode="&#xdf;" d="M143 0v1090q0 131 60 223t159.5 135t229.5 43q86 0 163 -21.5t141 -64.5t102 -116t38 -167q0 -195 -174 -303q102 -27 172 -130t70 -210q0 -236 -131 -373q-128 -137 -383 -137q-60 0 -109 15v153q37 -6 90 -6q168 0 258.5 77t90.5 230q0 145 -86 216t-263 71 q-55 0 -79 -8v162q40 -5 47 -5q155 0 236 58.5t81 173.5q0 59 -22.5 104.5t-61 72t-84.5 39.5t-98 13q-137 0 -201.5 -69t-64.5 -222v-1044h-181z" />
<glyph unicode="&#xe0;" d="M150 279q0 142 80 228t233 105l317 39q86 9 86 127q0 174 -252 174q-114 0 -173.5 -50t-71.5 -157h-168q12 357 442 357q76 0 145 -17t127 -51.5t92.5 -94t34.5 -136.5v-617q0 -63 58 -63q9 0 59 8v-131q-55 -20 -102 -20q-92 0 -137 39t-48 124q-152 -174 -387 -174 q-146 0 -240.5 84t-94.5 226zM334 305q0 -186 196 -186q74 0 148.5 29t128 88.5t53.5 134.5v176q-19 -19 -80 -35q-92 -19 -217 -33q-229 -29 -229 -174zM352 1503h213l148 -289h-138z" />
<glyph unicode="&#xe1;" d="M150 279q0 142 80 228t233 105l317 39q86 9 86 127q0 174 -252 174q-114 0 -173.5 -50t-71.5 -157h-168q12 357 442 357q76 0 145 -17t127 -51.5t92.5 -94t34.5 -136.5v-617q0 -63 58 -63q9 0 59 8v-131q-55 -20 -102 -20q-92 0 -137 39t-48 124q-152 -174 -387 -174 q-146 0 -240.5 84t-94.5 226zM334 305q0 -186 196 -186q74 0 148.5 29t128 88.5t53.5 134.5v176q-19 -19 -80 -35q-92 -19 -217 -33q-229 -29 -229 -174zM516 1214l146 289h215l-226 -289h-135z" />
<glyph unicode="&#xe2;" d="M150 279q0 142 80 228t233 105l317 39q86 9 86 127q0 174 -252 174q-114 0 -173.5 -50t-71.5 -157h-168q12 357 442 357q76 0 145 -17t127 -51.5t92.5 -94t34.5 -136.5v-617q0 -63 58 -63q9 0 59 8v-131q-55 -20 -102 -20q-92 0 -137 39t-48 124q-152 -174 -387 -174 q-146 0 -240.5 84t-94.5 226zM315 1214l203 289h191l202 -289h-163l-136 191l-135 -191h-162zM334 305q0 -186 196 -186q74 0 148.5 29t128 88.5t53.5 134.5v176q-19 -19 -80 -35q-92 -19 -217 -33q-229 -29 -229 -174z" />
<glyph unicode="&#xe3;" d="M150 279q0 142 80 228t233 105l317 39q86 9 86 127q0 174 -252 174q-114 0 -173.5 -50t-71.5 -157h-168q12 357 442 357q76 0 145 -17t127 -51.5t92.5 -94t34.5 -136.5v-617q0 -63 58 -63q9 0 59 8v-131q-55 -20 -102 -20q-92 0 -137 39t-48 124q-152 -174 -387 -174 q-146 0 -240.5 84t-94.5 226zM264 1241q15 108 69.5 163.5t143.5 55.5q61 0 150.5 -38t134.5 -38q85 0 100 95h101q-12 -104 -67.5 -164t-137.5 -60q-57 0 -164 38t-135 38q-76 0 -97 -90h-98zM334 305q0 -186 196 -186q74 0 148.5 29t128 88.5t53.5 134.5v176 q-19 -19 -80 -35q-92 -19 -217 -33q-229 -29 -229 -174z" />
<glyph unicode="&#xe4;" d="M150 279q0 142 80 228t233 105l317 39q86 9 86 127q0 174 -252 174q-114 0 -173.5 -50t-71.5 -157h-168q12 357 442 357q76 0 145 -17t127 -51.5t92.5 -94t34.5 -136.5v-617q0 -63 58 -63q9 0 59 8v-131q-55 -20 -102 -20q-92 0 -137 39t-48 124q-152 -174 -387 -174 q-146 0 -240.5 84t-94.5 226zM334 305q0 -186 196 -186q74 0 148.5 29t128 88.5t53.5 134.5v176q-19 -19 -80 -35q-92 -19 -217 -33q-229 -29 -229 -174zM356 1262v208h185v-208h-185zM688 1262v208h184v-208h-184z" />
<glyph unicode="&#xe5;" d="M150 279q0 142 80 228t233 105l317 39q86 9 86 127q0 174 -252 174q-114 0 -173.5 -50t-71.5 -157h-168q12 357 442 357q76 0 145 -17t127 -51.5t92.5 -94t34.5 -136.5v-617q0 -63 58 -63q9 0 59 8v-131q-55 -20 -102 -20q-92 0 -137 39t-48 124q-152 -174 -387 -174 q-146 0 -240.5 84t-94.5 226zM334 305q0 -186 196 -186q74 0 148.5 29t128 88.5t53.5 134.5v176q-19 -19 -80 -35q-92 -19 -217 -33q-229 -29 -229 -174zM426 1360q0 78 53 133t135 55t135.5 -54t53.5 -134t-53.5 -134.5t-135.5 -54.5q-83 0 -135.5 53.5t-52.5 135.5z M508 1360q0 -44 31 -75.5t75 -31.5q43 0 75 31.5t32 75.5t-32 75t-75 31q-44 0 -75 -31t-31 -75z" />
<glyph unicode="&#xe6;" d="M25 272q0 140 67 226.5t199 109.5l211 37q43 12 43 127q0 85 -41 129.5t-119 44.5q-79 0 -116.5 -55t-37.5 -152h-159q8 179 87.5 268t252.5 89q172 0 250 -111q79 111 215 111q86 0 150.5 -50t101 -138.5t54 -197t17.5 -239.5h-506q0 -352 183 -352q48 0 91.5 63.5 t47.5 147.5h168q-23 -168 -112.5 -267.5t-213.5 -99.5q-188 0 -262 182q-96 -182 -293 -182q-122 0 -200 83.5t-78 225.5zM199 299q0 -93 32 -139.5t113 -46.5q41 0 84.5 29.5t76.5 89.5t34 133v176q-20 -23 -50 -35q-22 -9 -114 -33q-101 -14 -138.5 -55.5t-37.5 -118.5z M694 614h330q-24 320 -166 320q-72 0 -118 -94.5t-46 -225.5z" />
<glyph unicode="&#xe7;" d="M135 506q0 127 33.5 234.5t98 188.5t168 127t235.5 46q183 0 296.5 -107t125.5 -284h-174q-49 229 -275 229q-83 0 -146 -33.5t-98.5 -91.5t-53 -128t-17.5 -150q0 -412 313 -412q105 0 181 74t96 180h174q-29 -189 -139 -294t-283 -114l-72 -98q50 8 64 8q80 0 126 -42 t46 -111q0 -90 -69.5 -139.5t-170.5 -49.5q-97 0 -199 45l35 82q88 -31 133 -31q53 0 85 22t32 64q0 35 -30 57.5t-70 22.5q-22 0 -78 -16l-35 39l111 149q-207 20 -325 167.5t-118 365.5z" />
<glyph unicode="&#xe8;" d="M125 506q0 130 32.5 237.5t97 188.5t167.5 125.5t237 44.5q103 0 185.5 -33.5t137.5 -91t91 -138t52 -170.5t16 -192h-824q0 -169 84 -260.5t248 -91.5q102 0 193.5 61t103.5 150h180q-35 -169 -168.5 -269t-322.5 -100q-121 0 -218.5 41t-161 113.5t-97 170.5t-33.5 214 zM317 621h637q-15 159 -91.5 239t-227.5 80q-139 0 -227.5 -92.5t-90.5 -226.5zM373 1503h213l147 -289h-137z" />
<glyph unicode="&#xe9;" d="M125 506q0 130 32.5 237.5t97 188.5t167.5 125.5t237 44.5q103 0 185.5 -33.5t137.5 -91t91 -138t52 -170.5t16 -192h-824q0 -169 84 -260.5t248 -91.5q102 0 193.5 61t103.5 150h180q-35 -169 -168.5 -269t-322.5 -100q-121 0 -218.5 41t-161 113.5t-97 170.5t-33.5 214 zM317 621h637q-15 159 -91.5 239t-227.5 80q-139 0 -227.5 -92.5t-90.5 -226.5zM537 1214l145 289h215l-225 -289h-135z" />
<glyph unicode="&#xea;" d="M125 506q0 130 32.5 237.5t97 188.5t167.5 125.5t237 44.5q103 0 185.5 -33.5t137.5 -91t91 -138t52 -170.5t16 -192h-824q0 -169 84 -260.5t248 -91.5q102 0 193.5 61t103.5 150h180q-35 -169 -168.5 -269t-322.5 -100q-121 0 -218.5 41t-161 113.5t-97 170.5t-33.5 214 zM317 621h637q-15 159 -91.5 239t-227.5 80q-139 0 -227.5 -92.5t-90.5 -226.5zM336 1214l203 289h190l203 -289h-164l-135 191l-135 -191h-162z" />
<glyph unicode="&#xeb;" d="M125 506q0 130 32.5 237.5t97 188.5t167.5 125.5t237 44.5q103 0 185.5 -33.5t137.5 -91t91 -138t52 -170.5t16 -192h-824q0 -169 84 -260.5t248 -91.5q102 0 193.5 61t103.5 150h180q-35 -169 -168.5 -269t-322.5 -100q-121 0 -218.5 41t-161 113.5t-97 170.5t-33.5 214 zM317 621h637q-15 159 -91.5 239t-227.5 80q-139 0 -227.5 -92.5t-90.5 -226.5zM377 1262v208h184v-208h-184zM709 1262v208h184v-208h-184z" />
<glyph unicode="&#xec;" d="M115 0v150h409v772h-327v149h508v-921h409v-150h-999zM311 1503h213l148 -289h-137z" />
<glyph unicode="&#xed;" d="M115 0v150h409v772h-327v149h508v-921h409v-150h-999zM475 1214l146 289h215l-226 -289h-135z" />
<glyph unicode="&#xee;" d="M115 0v150h409v772h-327v149h508v-921h409v-150h-999zM274 1214l203 289h191l202 -289h-163l-136 191l-135 -191h-162z" />
<glyph unicode="&#xef;" d="M115 0v150h409v772h-327v149h508v-921h409v-150h-999zM315 1262v208h185v-208h-185zM647 1262v208h184v-208h-184z" />
<glyph unicode="&#xf0;" d="M117 506q0 105 32.5 201.5t91 172t148.5 120t197 44.5q168 0 274 -112l4 4q-65 169 -227 311l-254 -127l-86 86l242 117q-107 81 -185 113l152 73q102 -40 186 -108l217 102l97 -80l-220 -104q324 -297 324 -741q0 -95 -19 -183.5t-58.5 -166t-96.5 -135t-139 -91 t-179 -33.5q-150 0 -265 72t-175.5 193.5t-60.5 271.5zM303 506q0 -100 32.5 -184.5t105 -140.5t173.5 -56t173 56.5t104.5 141t32.5 183.5q0 101 -31.5 185.5t-103.5 141t-175 56.5q-78 0 -139 -31.5t-97.5 -85.5t-55.5 -121.5t-19 -144.5z" />
<glyph unicode="&#xf1;" d="M178 0v1071h170v-151h4q126 182 324 182q182 0 278.5 -96t96.5 -277v-729h-181v659q0 144 -49.5 212.5t-179.5 68.5q-93 0 -158.5 -50t-95 -129t-29.5 -177v-584h-180zM264 1241q15 108 69.5 163.5t143.5 55.5q61 0 150.5 -38t134.5 -38q85 0 100 95h101 q-12 -104 -67.5 -164t-137.5 -60q-57 0 -164 38t-135 38q-76 0 -97 -90h-98z" />
<glyph unicode="&#xf2;" d="M137 537q0 114 33.5 215.5t95 179.5t156.5 124t211 46t211.5 -46t157 -124t95 -179.5t33.5 -215.5q0 -91 -20.5 -174.5t-62 -155.5t-100 -125t-139.5 -83t-175 -30q-115 0 -210 46t-157 124t-95.5 180.5t-33.5 217.5zM322 537q0 -63 10.5 -121.5t35 -111.5t59.5 -92 t88 -62t118 -23q64 0 117 23.5t89 63.5t60.5 93t35.5 111t11 119q0 78 -18.5 149t-54.5 129.5t-98 93.5t-142 35q-78 0 -139.5 -34t-98 -92t-55 -129.5t-18.5 -151.5zM352 1503h213l148 -289h-138z" />
<glyph unicode="&#xf3;" d="M137 537q0 114 33.5 215.5t95 179.5t156.5 124t211 46t211.5 -46t157 -124t95 -179.5t33.5 -215.5q0 -91 -20.5 -174.5t-62 -155.5t-100 -125t-139.5 -83t-175 -30q-115 0 -210 46t-157 124t-95.5 180.5t-33.5 217.5zM322 537q0 -63 10.5 -121.5t35 -111.5t59.5 -92 t88 -62t118 -23q64 0 117 23.5t89 63.5t60.5 93t35.5 111t11 119q0 78 -18.5 149t-54.5 129.5t-98 93.5t-142 35q-78 0 -139.5 -34t-98 -92t-55 -129.5t-18.5 -151.5zM516 1214l146 289h215l-226 -289h-135z" />
<glyph unicode="&#xf4;" d="M137 537q0 114 33.5 215.5t95 179.5t156.5 124t211 46t211.5 -46t157 -124t95 -179.5t33.5 -215.5q0 -91 -20.5 -174.5t-62 -155.5t-100 -125t-139.5 -83t-175 -30q-115 0 -210 46t-157 124t-95.5 180.5t-33.5 217.5zM315 1214l203 289h191l202 -289h-163l-136 191 l-135 -191h-162zM322 537q0 -63 10.5 -121.5t35 -111.5t59.5 -92t88 -62t118 -23q64 0 117 23.5t89 63.5t60.5 93t35.5 111t11 119q0 78 -18.5 149t-54.5 129.5t-98 93.5t-142 35q-78 0 -139.5 -34t-98 -92t-55 -129.5t-18.5 -151.5z" />
<glyph unicode="&#xf5;" d="M137 537q0 114 33.5 215.5t95 179.5t156.5 124t211 46t211.5 -46t157 -124t95 -179.5t33.5 -215.5q0 -91 -20.5 -174.5t-62 -155.5t-100 -125t-139.5 -83t-175 -30q-115 0 -210 46t-157 124t-95.5 180.5t-33.5 217.5zM264 1241q15 108 69.5 163.5t143.5 55.5 q61 0 150.5 -38t134.5 -38q85 0 100 95h101q-12 -104 -67.5 -164t-137.5 -60q-57 0 -164 38t-135 38q-76 0 -97 -90h-98zM322 537q0 -63 10.5 -121.5t35 -111.5t59.5 -92t88 -62t118 -23q64 0 117 23.5t89 63.5t60.5 93t35.5 111t11 119q0 78 -18.5 149t-54.5 129.5 t-98 93.5t-142 35q-78 0 -139.5 -34t-98 -92t-55 -129.5t-18.5 -151.5z" />
<glyph unicode="&#xf6;" d="M137 537q0 114 33.5 215.5t95 179.5t156.5 124t211 46t211.5 -46t157 -124t95 -179.5t33.5 -215.5q0 -91 -20.5 -174.5t-62 -155.5t-100 -125t-139.5 -83t-175 -30q-115 0 -210 46t-157 124t-95.5 180.5t-33.5 217.5zM322 537q0 -63 10.5 -121.5t35 -111.5t59.5 -92 t88 -62t118 -23q64 0 117 23.5t89 63.5t60.5 93t35.5 111t11 119q0 78 -18.5 149t-54.5 129.5t-98 93.5t-142 35q-78 0 -139.5 -34t-98 -92t-55 -129.5t-18.5 -151.5zM356 1262v208h185v-208h-185zM688 1262v208h184v-208h-184z" />
<glyph unicode="&#xf7;" d="M96 442v150h1037v-150h-1037zM508 -6v217h213v-217h-213zM508 827v217h213v-217h-213z" />
<glyph unicode="&#xf8;" d="M123 8l125 154q-111 154 -111 375q0 114 33.5 215.5t95 179.5t156.5 124t211 46q173 0 301 -103l96 117l74 -53l-105 -129q131 -155 131 -397q0 -91 -20.5 -174.5t-62 -155.5t-100 -125t-139.5 -83t-175 -30q-195 0 -324 123l-112 -137zM322 537q0 -133 45 -232l460 563 q-76 76 -194 76q-78 0 -139.5 -34t-98 -92t-55 -129.5t-18.5 -151.5zM416 223q83 -96 217 -96q64 0 117 23.5t89 63.5t60.5 93t35.5 111t11 119q0 148 -61 258z" />
<glyph unicode="&#xf9;" d="M182 301v770h180v-711q0 -117 53 -176t154 -59q144 0 219.5 101.5t75.5 254.5v590h180v-1071h-170v156l-4 4q-102 -191 -340 -191q-156 0 -252 87.5t-96 244.5zM352 1503h213l148 -289h-138z" />
<glyph unicode="&#xfa;" d="M182 301v770h180v-711q0 -117 53 -176t154 -59q144 0 219.5 101.5t75.5 254.5v590h180v-1071h-170v156l-4 4q-102 -191 -340 -191q-156 0 -252 87.5t-96 244.5zM516 1214l146 289h215l-226 -289h-135z" />
<glyph unicode="&#xfb;" d="M182 301v770h180v-711q0 -117 53 -176t154 -59q144 0 219.5 101.5t75.5 254.5v590h180v-1071h-170v156l-4 4q-102 -191 -340 -191q-156 0 -252 87.5t-96 244.5zM315 1214l203 289h191l202 -289h-163l-136 191l-135 -191h-162z" />
<glyph unicode="&#xfc;" d="M182 301v770h180v-711q0 -117 53 -176t154 -59q144 0 219.5 101.5t75.5 254.5v590h180v-1071h-170v156l-4 4q-102 -191 -340 -191q-156 0 -252 87.5t-96 244.5zM356 1262v208h185v-208h-185zM688 1262v208h184v-208h-184z" />
<glyph unicode="&#xfd;" d="M84 1071h203l327 -872h4l328 872h197l-424 -1051q-42 -114 -91 -221t-79 -149q-64 -88 -205 -88q-71 0 -121 16v164q53 -18 113 -18q62 0 96 43q38 57 90 202zM516 1214l146 289h215l-226 -289h-135z" />
<glyph unicode="&#xfe;" d="M184 -424v1894h170v-550h4q114 182 320 182q87 0 160.5 -28.5t125.5 -78.5t88.5 -117.5t54 -146t17.5 -164.5q0 -95 -17 -181t-53.5 -163t-90.5 -133t-133.5 -88.5t-176.5 -32.5q-185 0 -284 144h-4v-537h-181zM356 485q0 -155 76 -257.5t217 -102.5q79 0 137 35.5 t90 96.5t47 131t15 151q0 207 -72 304t-221 97q-289 0 -289 -455z" />
<glyph unicode="&#xff;" d="M84 1071h203l327 -872h4l328 872h197l-424 -1051q-42 -114 -91 -221t-79 -149q-64 -88 -205 -88q-71 0 -121 16v164q53 -18 113 -18q62 0 96 43q38 57 90 202zM356 1262v208h185v-208h-185zM688 1262v208h184v-208h-184z" />
<glyph unicode="&#x152;" d="M29 727q0 116 19.5 222.5t62.5 202t105.5 166t154.5 111.5t204 41h615v-176h-387v-450h354v-176h-354v-492h391v-174h-641q-108 0 -196.5 39.5t-148.5 107t-101 160.5t-59.5 197.5t-18.5 220.5zM233 694q0 -90 10 -164t35.5 -141t66 -113t103.5 -73t146 -27h10v1124h-26 q-170 0 -257.5 -158t-87.5 -448z" />
<glyph unicode="&#x153;" d="M55 537q0 113 22 214t63 179.5t105 125t142 46.5q157 0 240 -135q77 135 250 135q78 0 136.5 -50t93 -138t51 -197.5t16.5 -239.5h-455q0 -352 149 -352q37 0 71.5 59.5t41.5 151.5h178q-62 -367 -315 -367q-154 0 -236 125q-66 -123 -221 -123q-104 0 -180.5 79 t-114 206t-37.5 281zM240 537q0 -82 8 -153t24.5 -130t46 -93t68.5 -34q50 0 85 60.5t50 151t15 198.5q0 106 -15 196t-50.5 151.5t-84.5 61.5q-39 0 -68.5 -34.5t-46 -94t-24.5 -129.5t-8 -151zM719 621h268q-6 155 -39.5 237t-93.5 82q-57 0 -96 -95.5t-39 -223.5z" />
<glyph unicode="&#x178;" d="M43 1470h231l340 -706l340 706h234l-473 -878v-592h-199v592zM356 1651v209h185v-209h-185zM688 1651v209h184v-209h-184z" />
<glyph unicode="&#x2c6;" d="M315 1214l203 289h191l202 -289h-163l-136 191l-135 -191h-162z" />
<glyph unicode="&#x2dc;" d="M264 1241q15 108 69.5 163.5t143.5 55.5q61 0 150.5 -38t134.5 -38q85 0 100 95h101q-12 -104 -67.5 -164t-137.5 -60q-57 0 -164 38t-135 38q-76 0 -97 -90h-98z" />
<glyph unicode="&#x2000;" horiz-adv-x="968" />
<glyph unicode="&#x2001;" horiz-adv-x="1937" />
<glyph unicode="&#x2002;" horiz-adv-x="968" />
<glyph unicode="&#x2003;" horiz-adv-x="1937" />
<glyph unicode="&#x2004;" horiz-adv-x="645" />
<glyph unicode="&#x2005;" horiz-adv-x="484" />
<glyph unicode="&#x2006;" horiz-adv-x="322" />
<glyph unicode="&#x2007;" horiz-adv-x="322" />
<glyph unicode="&#x2008;" horiz-adv-x="242" />
<glyph unicode="&#x2009;" horiz-adv-x="387" />
<glyph unicode="&#x200a;" horiz-adv-x="107" />
<glyph unicode="&#x2010;" d="M362 475v184h502v-184h-502z" />
<glyph unicode="&#x2011;" d="M362 475v184h502v-184h-502z" />
<glyph unicode="&#x2012;" d="M362 475v184h502v-184h-502z" />
<glyph unicode="&#x2013;" d="M102 492v149h1024v-149h-1024z" />
<glyph unicode="&#x2014;" d="M0 492v149h1229v-149h-1229z" />
<glyph unicode="&#x2018;" d="M508 963v200q0 142 50 219t163 103v-96q-109 -15 -109 -209h109v-217h-213z" />
<glyph unicode="&#x2019;" d="M508 948v96q108 15 108 209h-108v217h213v-200q0 -142 -50.5 -219t-162.5 -103z" />
<glyph unicode="&#x201a;" d="M508 0v217h213v-201q0 -274 -213 -317v94q108 12 108 207h-108z" />
<glyph unicode="&#x201c;" d="M297 963v200q0 142 50 219t163 103v-96q-109 -15 -109 -209h109v-217h-213zM717 963v200q0 142 50 219t163 103v-96q-109 -15 -109 -209h109v-217h-213z" />
<glyph unicode="&#x201d;" d="M297 948v96q109 15 109 209h-109v217h213v-200q0 -142 -50.5 -219t-162.5 -103zM717 948v96q108 15 108 209h-108v217h213v-200q0 -142 -50.5 -219t-162.5 -103z" />
<glyph unicode="&#x201e;" d="M297 0v217h213v-201q0 -274 -213 -317v94q109 12 109 207h-109zM717 0v217h213v-201q0 -274 -213 -317v94q108 12 108 207h-108z" />
<glyph unicode="&#x2022;" d="M291 735q0 136 91.5 230t227.5 94t231 -94t95 -230t-94.5 -228.5t-231.5 -92.5q-136 0 -227.5 92.5t-91.5 228.5z" />
<glyph unicode="&#x2026;" d="M92 0v217h213v-217h-213zM508 0v217h213v-217h-213zM924 0v217h213v-217h-213z" />
<glyph unicode="&#x202f;" horiz-adv-x="387" />
<glyph unicode="&#x2039;" d="M453 473v189l321 251v-180l-215 -166l215 -166v-180z" />
<glyph unicode="&#x203a;" d="M453 221v180l215 166l-215 166v180l321 -251v-189z" />
<glyph unicode="&#x205f;" horiz-adv-x="484" />
<glyph unicode="&#x20ac;" d="M94 547l21 108h100q0 109 4 152h-125l21 108h116q12 88 37 166.5t66.5 150.5t96 124t131 83t165.5 31q176 0 282 -107.5t121 -285.5h-174q-37 230 -254 230q-224 0 -282 -392h508l-21 -108h-497q-5 -68 -2 -152h471l-21 -108h-442q20 -198 97 -306t202 -108 q97 0 160.5 66t87.5 184h172q-19 -183 -138 -297.5t-303 -114.5q-87 0 -161.5 32.5t-127.5 87.5t-92.5 129.5t-61.5 156t-30 170.5h-127z" />
<glyph unicode="&#x2122;" d="M31 1348v122h436v-122h-148v-721h-141v721h-147zM510 627v843h215l129 -622l129 622h215v-843h-141v686h-2l-154 -686h-96l-152 686h-4v-686h-139z" />
<glyph unicode="&#xe000;" horiz-adv-x="1075" d="M0 0v1075h1075v-1075h-1075z" />
<glyph unicode="&#xfb01;" d="M33 922v149h291v103q0 317 360 317q86 0 123 -4v-162q-70 4 -115 4q-106 0 -147 -47.5t-41 -159.5v-51h303v-149h-303v-922h-180v922h-291zM872 0v1071h181v-1071h-181zM872 1266v204h181v-204h-181z" />
<glyph unicode="&#xfb02;" d="M33 922v149h291v103q0 317 360 317q86 0 123 -4v-162q-70 4 -115 4q-106 0 -147 -47.5t-41 -159.5v-51h303v-149h-303v-922h-180v922h-291zM872 0v1470h181v-1470h-181z" />
<glyph unicode="&#xfb03;" d="M-8 922v149h106v103q0 317 320 317q65 0 102 -4v-162q-78 4 -94 4q-85 0 -116 -47t-31 -160v-51h268v103q0 163 71.5 240t227.5 77q57 0 82 -4v-162q-54 4 -74 4q-43 0 -69 -11t-38.5 -39.5t-16 -62t-3.5 -94.5v-51h201v-149h-201v-922h-180v922h-268v-922h-181v922h-106 zM993 0v1071h181v-1071h-181zM993 1266v204h181v-204h-181z" />
<glyph unicode="&#xfb04;" d="M-8 922v149h106v103q0 317 320 317q65 0 102 -4v-162q-33 4 -94 4q-85 0 -116 -47t-31 -160v-51h268v103q0 163 70 240t225 77q61 0 86 -4v-162q-54 4 -78 4q-35 0 -58 -8.5t-36 -21.5t-19.5 -42t-8 -56.5t-1.5 -78.5v-51h201v-149h-201v-922h-180v922h-268v-922h-181 v922h-106zM993 0v1470h181v-1470h-181z" />
</font>
</defs>
</svg>
