<?xml version="1.0" encoding="UTF-8" standalone="no"?>
<svg width="438px" height="437px" viewBox="0 0 438 437" version="1.1" xmlns="http://www.w3.org/2000/svg" xmlns:xlink="http://www.w3.org/1999/xlink" xmlns:sketch="http://www.bohemiancoding.com/sketch/ns">
    <title>Slice 1</title>
    <description>Created with Sketch (http://www.bohemiancoding.com/sketch)</description>
    <defs></defs>
    <g id="Page 1" stroke="none" stroke-width="1" fill="none" fill-rule="evenodd">
        <g id="Colorpicker" fill="#000000">
            <path d="M424.5,39.244 L398.028,12.771 C381.161,-4.097 353.812,-4.094 336.945,12.774 L275.479,74.242 L245.777,44.543 L187.013,103.306 L211.514,127.805 L43.748,295.573 C32.761,306.557 26.6,320.972 25.767,335.81 L16.001,345.574 C-4.866,366.455 -4.862,400.412 16.003,421.278 C26.109,431.386 39.551,436.957 53.853,436.957 C68.15,436.957 81.586,431.389 91.7,421.287 L101.458,411.522 C116.669,410.701 130.852,404.383 141.706,393.532 L309.477,225.765 L333.97,250.26 L392.735,191.496 L363.037,161.797 L424.502,100.331 C441.372,83.462 441.372,56.113 424.5,39.244 L424.5,39.244 Z M114.574,366.398 C110.003,370.966 104.028,373.244 98.042,373.244 C94.541,373.244 91.035,372.462 87.811,370.901 L87.811,370.908 L64.569,394.144 C61.613,397.105 57.733,398.583 53.853,398.583 C49.977,398.583 46.094,397.104 43.138,394.144 C37.219,388.222 37.219,378.628 43.136,372.708 L66.369,349.47 C66.371,349.47 66.373,349.468 66.377,349.466 C62.151,340.741 63.636,329.948 70.88,322.705 L238.649,154.937 L282.344,198.63 L114.574,366.398 L114.574,366.398 Z M114.574,366.398" id="Shape"></path>
        </g>
    </g>
</svg>