<?xml version="1.0" encoding="UTF-8" standalone="no"?>
<svg width="435px" height="435px" viewBox="0 0 435 435" version="1.1" xmlns="http://www.w3.org/2000/svg" xmlns:xlink="http://www.w3.org/1999/xlink" xmlns:sketch="http://www.bohemiancoding.com/sketch/ns">
    <title>command</title>
    <description>Created with Sketch (http://www.bohemiancoding.com/sketch)</description>
    <defs></defs>
    <g id="Page 1" stroke="none" stroke-width="1" fill="none" fill-rule="evenodd">
        <g id="Comand" fill="#000000">
            <path d="M434.611,90.513 C434.496,78.549 432.153,67.133 427.603,56.424 C422.974,45.525 416.671,35.861 408.738,27.544 C400.769,19.189 391.304,12.584 380.478,7.803 C369.607,2.993 357.925,0.578 345.628,0.565 C345.586,0.565 345.546,0.563 345.509,0.565 L345.492,0.565 C333.161,0.557 321.421,2.98 310.425,7.776 C299.484,12.55 289.894,19.133 281.807,27.481 C273.747,35.788 267.31,45.436 262.553,56.335 C257.731,67.344 255.324,79.11 255.324,91.441 L255.313,128.66 L181.23,128.642 L181.242,90.236 L181.23,90.211 C181.086,78.318 178.678,66.962 174.027,56.312 C169.276,45.414 162.851,35.755 154.79,27.441 C146.702,19.096 137.129,12.51 126.193,7.724 C115.234,2.935 103.543,0.523 91.278,0.499 C91.199,0.495 91.127,0.493 91.058,0.493 L91.058,0.489 C78.722,0.489 66.975,2.901 55.972,7.702 C45.03,12.474 35.446,19.065 27.355,27.413 C19.296,35.712 12.866,45.367 8.1,56.27 C3.31,67.224 0.897,78.929 0.873,91.206 C0.872,91.274 0.872,91.31 0.873,91.336 L0.873,91.374 L0.877,91.374 C0.877,91.38 0.877,91.39 0.873,91.401 C0.868,103.728 3.277,115.43 8.095,126.321 C12.854,137.124 19.308,146.564 27.405,154.534 C35.488,162.502 45.061,168.832 55.972,173.47 C66.972,178.164 78.707,180.499 91.033,180.499 L130.037,180.513 L130.017,254.955 L91.195,254.943 C91.058,254.939 90.932,254.943 90.827,254.943 C78.573,254.955 66.896,257.299 55.948,261.958 C45.031,266.595 35.459,272.913 27.368,280.882 C19.265,288.842 12.808,298.292 8.04,309.087 C3.23,319.949 0.821,331.62 0.806,343.909 C0.805,344.017 0.806,344.055 0.806,344.063 C0.798,356.39 3.201,368.139 8.016,379.146 C12.767,390.047 19.217,399.615 27.308,407.7 C35.387,415.795 44.952,422.239 55.856,427.011 C66.862,431.824 78.623,434.239 90.959,434.239 L94.059,434.239 L94.087,434.183 C105.288,433.818 115.992,431.429 126.069,427.029 C136.98,422.264 146.541,415.827 154.632,407.736 C162.723,399.651 169.177,390.09 173.942,379.186 C178.755,368.175 181.17,356.421 181.17,344.076 L181.182,306.498 L255.266,306.524 L255.252,344.102 L255.252,344.14 C255.244,356.462 257.654,368.206 262.465,379.21 C267.219,390.113 273.667,399.689 281.752,407.771 C289.837,415.865 299.396,422.315 310.309,427.08 C321.279,431.875 332.999,434.287 345.296,434.305 L345.36,434.305 C345.377,434.305 345.395,434.307 345.412,434.307 L353.515,434.311 L353.345,433.969 C362.785,433.157 371.821,430.864 380.361,427.096 C391.155,422.325 400.61,415.879 408.577,407.784 C416.552,399.69 422.869,390.125 427.516,379.212 C432.204,368.215 434.546,356.478 434.546,344.153 L434.546,343.33 L434.542,343.322 C434.439,331.524 432.098,320.236 427.523,309.604 C422.882,298.798 416.49,289.284 408.403,281.199 C400.315,273.107 390.809,266.715 380.008,262.059 C369.128,257.368 357.557,255.017 345.459,255.017 L307.166,255.003 L307.185,180.561 L350.49,180.579 L350.49,180.441 C360.775,179.887 370.658,177.596 380.033,173.554 C390.835,168.913 400.349,162.523 408.441,154.434 C416.525,146.349 422.924,136.844 427.578,126.039 C432.263,115.159 434.615,103.589 434.615,91.491 L434.615,90.528 L434.611,90.513 L434.611,90.513 Z M130.001,344.062 C129.995,349.394 128.993,354.357 126.988,359.117 C124.952,363.91 122.174,368.053 118.571,371.656 C114.95,375.277 110.846,378.056 106.166,380.081 C101.581,382.06 96.57,383.058 90.979,383.067 C85.645,383.057 80.68,382.06 75.934,380.055 C71.151,378.033 67.183,375.29 63.851,371.749 C60.449,368.13 57.746,363.947 55.698,359.096 C53.766,354.533 52.781,349.784 52.698,344.702 L52.698,344.037 C52.698,338.976 53.679,334.214 55.686,329.566 C57.711,324.887 60.432,320.929 63.88,317.581 C67.381,314.197 71.436,311.502 76.169,309.454 C80.58,307.549 85.258,306.553 90.341,306.473 L130.013,306.484 L130.001,344.062 L130.001,344.062 Z M130.055,128.624 L91.047,128.616 C85.715,128.61 80.822,127.619 76.217,125.625 C71.483,123.577 67.434,120.883 63.943,117.495 C60.467,114.124 57.752,110.213 55.735,105.646 C53.746,101.148 52.767,96.455 52.767,91.396 L52.767,91.384 C52.771,85.788 53.778,80.781 55.759,76.195 C57.8,71.457 60.517,67.314 63.935,63.679 C67.268,60.15 71.245,57.408 76.018,55.38 C80.764,53.376 85.72,52.381 91.051,52.381 L91.071,52.381 C96.664,52.394 101.675,53.398 106.259,55.38 C110.936,57.402 115.035,60.182 118.657,63.809 C122.275,67.43 125.057,71.528 127.088,76.214 C129.058,80.797 130.071,85.808 130.071,91.409 L130.055,128.624 L130.055,128.624 Z M255.277,254.989 L181.193,254.968 L181.211,180.524 L255.299,180.549 L255.277,254.989 L255.277,254.989 Z M345.448,306.548 C350.51,306.548 355.2,307.536 359.712,309.52 C364.301,311.561 368.233,314.241 371.61,317.611 C374.955,320.969 377.631,324.946 379.675,329.661 C381.669,334.303 382.656,339.071 382.656,344.14 L382.66,344.14 C382.654,349.475 381.653,354.359 379.663,358.968 C377.614,363.708 374.897,367.849 371.483,371.48 C368.096,375.076 364.171,377.904 359.598,380.029 C355.106,382.113 350.456,383.131 345.428,383.137 C340.09,383.13 335.133,382.136 330.375,380.126 C325.591,378.107 321.625,375.36 318.305,371.821 C314.897,368.206 312.187,364.022 310.146,359.165 C308.14,354.425 307.148,349.496 307.141,344.192 L307.154,306.535 L345.448,306.548 L345.448,306.548 Z M379.75,105.732 C377.713,110.336 375.035,114.27 371.666,117.632 C368.283,121.008 364.354,123.683 359.754,125.713 C355.254,127.697 350.572,128.677 345.518,128.683 L345.498,128.683 L307.203,128.669 L307.215,91.451 C307.215,85.858 308.223,80.846 310.207,76.27 C312.252,71.524 314.967,67.388 318.386,63.752 C321.713,60.223 325.688,57.477 330.47,55.452 C335.02,53.527 339.766,52.534 344.856,52.451 L345.522,52.451 C350.547,52.457 355.201,53.49 359.693,55.565 C364.26,57.699 368.185,60.533 371.573,64.122 C374.985,67.767 377.694,71.899 379.744,76.644 C381.732,81.253 382.723,86.148 382.731,91.475 C382.723,96.536 381.737,101.242 379.75,105.732 L379.75,105.732 Z M379.75,105.732" id="Shape"></path>
        </g>
    </g>
</svg>